<?xml version="1.0" standalone="no"?>
<!DOCTYPE svg PUBLIC "-//W3C//DTD SVG 1.1//EN" "http://www.w3.org/Graphics/SVG/1.1/DTD/svg11.dtd" >
<svg xmlns="http://www.w3.org/2000/svg">
<metadata></metadata>
<defs>
<font id="adelle_rgitalic" horiz-adv-x="1540" >
<font-face units-per-em="2048" ascent="1546" descent="-502" />
<missing-glyph horiz-adv-x="454" />
<glyph unicode="&#xfb01;" horiz-adv-x="1286" d="M94 -434l189 1325q3 20 -15 20h-143l20 142h160l27 186q47 330 407 330q115 0 220.5 -36t170.5 -79l-77 -127q-157 94 -303 94q-112 0 -168.5 -51t-71.5 -156l-21 -141q-2 -11 1 -15.5t14 -4.5h663l-127 -895q-3 -25 1.5 -31.5t27.5 -9.5l123 -17l-14 -100h-347l-4 8 l43 236l91 635q6 29 -19 32h-473l-193 -1345h-182z" />
<glyph unicode="&#xfb02;" horiz-adv-x="1290" d="M94 -434l189 1325q3 20 -15 20h-143l20 142h160l27 186q47 330 403 330q171 0 330 -86l127 63h45l-197 -1388q-3 -25 1.5 -31.5t27.5 -9.5l123 -17l-14 -100h-347l-4 8l43 236l150 1095q-148 82 -277 82q-108 0 -163.5 -50t-69.5 -152l-21 -146q-2 -11 1 -15.5t14 -4.5 h301l-21 -142h-315l-193 -1345h-182z" />
<glyph unicode="&#xfb03;" horiz-adv-x="1961" d="M94 -434l189 1325q3 20 -15 20h-143l20 142h160l23 155q26 171 115 250.5t239 79.5q98 0 179.5 -31t127.5 -69l-80 -123q-110 76 -213 76q-87 0 -129.5 -49.5t-58.5 -153.5l-19 -115q-2 -11 1 -15.5t14 -4.5h479l27 186q47 330 407 330q115 0 220.5 -36t170.5 -79 l-75 -127q-162 94 -306 94q-112 0 -168.5 -51t-70.5 -156l-19 -141q-2 -11 1 -15.5t14 -4.5h661l-125 -895q-3 -26 0.5 -32t26.5 -9l123 -17l-15 -100h-346l-4 8l43 236l90 635q3 19 -2 25.5t-22 6.5h-467l-191 -1345h-184l189 1325q4 20 -11 20h-481l-193 -1345h-182z" />
<glyph unicode="&#xfb04;" horiz-adv-x="1972" d="M94 -434l189 1325q3 20 -15 20h-143l20 142h160l23 155q26 171 114.5 250.5t239.5 79.5q99 0 180 -31t127 -69l-80 -123q-110 76 -213 76q-87 0 -129.5 -49.5t-58.5 -153.5l-19 -115q-1 -13 2 -16.5t15 -3.5h481l25 186q47 330 405 330q88 0 176.5 -25.5t153.5 -60.5 l20 12l107 51h45l-197 -1388q-3 -25 1.5 -31.5t27.5 -9.5l121 -17l-14 -100h-347l-4 8l43 236l152 1095q-148 82 -279 82q-107 0 -162 -50t-69 -152l-21 -146q-2 -11 1 -15.5t14 -4.5h299l-21 -142h-315l-191 -1345h-184l191 1325q3 20 -15 20h-481l-193 -1345h-182z" />
<glyph horiz-adv-x="2048" />
<glyph horiz-adv-x="2048" />
<glyph unicode="&#xd;" horiz-adv-x="2048" />
<glyph unicode=" "  horiz-adv-x="454" />
<glyph unicode="&#x09;" horiz-adv-x="454" />
<glyph unicode="&#xa0;" horiz-adv-x="454" />
<glyph unicode="!" horiz-adv-x="540" d="M102 82q0 73 40.5 112t115.5 39q119 0 119 -106q0 -74 -40 -113t-116 -39q-57 0 -88 27.5t-31 79.5zM201 383l80 760l47 340h207l-48 -340l-131 -760h-155z" />
<glyph unicode="&#x22;" horiz-adv-x="763" d="M170 915l76 531h184l-76 -531h-184zM518 915l76 531h184l-76 -531h-184z" />
<glyph unicode="#" horiz-adv-x="1243" d="M57 285l49 135h228l88 303h-236l52 137h225l72 252h149l-74 -252h246l72 252h147l-74 -252h238l-49 -137h-227l-89 -303h234l-47 -135h-225l-82 -285h-148l82 285h-248l-82 -285h-147l80 285h-234zM479 420h250l86 303h-246z" />
<glyph unicode="$" horiz-adv-x="1050" d="M33 80l41 282h133l14 -147q3 -31 9.5 -41t27.5 -16q66 -20 154 -23l61 449q-52 18 -87 33.5t-77 42t-67 57.5t-42.5 77.5t-17.5 104.5q0 87 30 156t84 114.5t123 73t152 37.5l23 154h145l-20 -150q89 -4 174 -23t137 -40l-41 -312l-133 11l-6 149q-2 27 -6.5 37.5 t-22.5 17.5q-48 20 -121 23l-61 -442q63 -23 107 -45t90.5 -58.5t71 -89t24.5 -119.5q0 -164 -106 -263.5t-289 -123.5l-23 -170h-141l20 164q-108 4 -209.5 28t-150.5 52zM362 938q0 -67 33 -108.5t105 -75.5l51 385q-89 -19 -139 -72t-50 -129zM555 137q98 18 148.5 77 t50.5 140q0 65 -34.5 107t-111.5 71z" />
<glyph unicode="%" horiz-adv-x="1800" d="M166 825q0 198 102.5 321.5t292.5 123.5q144 0 214.5 -79t70.5 -218q0 -200 -103.5 -323.5t-289.5 -123.5q-78 0 -135 23.5t-89.5 66t-47.5 94.5t-15 115zM328 840q0 -189 143 -189q211 0 211 316q0 176 -139 176q-60 0 -103.5 -26.5t-67 -71.5t-34 -96t-10.5 -109z M358 -35l955 1307h176l-952 -1307h-179zM1010 274q0 198 103.5 321.5t293.5 123.5q144 0 214.5 -79t70.5 -218q0 -200 -104 -323.5t-290 -123.5q-78 0 -135.5 24t-90 66t-47.5 94t-15 115zM1174 289q0 -189 143 -189q211 0 211 316q0 176 -139 176q-60 0 -103.5 -26.5 t-67 -71.5t-34 -96t-10.5 -109z" />
<glyph unicode="&#x26;" horiz-adv-x="1417" d="M158 324q0 155 88 252.5t225 134.5q-84 31 -135 104t-51 168q0 181 132.5 290t352.5 109q121 0 233.5 -28t167.5 -64l-47 -280l-135 10l-8 145q-1 16 -2 21.5t-6.5 11.5t-16.5 10q-65 23 -178 23q-42 0 -80.5 -5.5t-80.5 -21.5t-72.5 -42t-50 -71t-19.5 -104 q0 -97 64 -152t176 -55h114l-20 -147q-80 0 -144 -7t-123.5 -26t-99.5 -49.5t-64 -79.5t-24 -115q0 -67 23 -114t67 -71.5t96.5 -35t121.5 -10.5q153 0 239 33q30 12 40 25.5t15 43.5l76 527l47 24h254l-16 -112l-84 -9q-19 -2 -27.5 -7.5t-9.5 -20.5l-76 -549 q-68 -49 -197.5 -77t-271.5 -28q-251 0 -372 91.5t-121 257.5z" />
<glyph unicode="'" horiz-adv-x="415" d="M170 915l76 531h184l-76 -531h-184z" />
<glyph unicode="(" horiz-adv-x="645" d="M127 418q0 160 39 315.5t109.5 292t145.5 246t171 221.5l127 -86q-212 -280 -306 -502.5t-94 -492.5q0 -180 40 -333t114 -323l-156 -80q-84 156 -137 346.5t-53 395.5z" />
<glyph unicode=")" horiz-adv-x="636" d="M-39 -238q211 279 305 502t94 494q0 180 -40 332.5t-113 322.5l155 80q84 -156 137.5 -346.5t53.5 -394.5q0 -160 -39 -315.5t-109.5 -292.5t-145.5 -246.5t-171 -221.5z" />
<glyph unicode="*" horiz-adv-x="964" d="M195 1214l71 146l121 -45l164 -111l-14 209l20 133h154l-21 -133l-72 -209h-67l-29 -61l56 -41l-127 -189l-99 -104l-112 98l98 103l184 133l-207 26zM578 1102l53 39l-13 63l197 111l131 45l33 -146l-133 -45l-215 -28l143 -135l72 -103l-129 -90l-70 100z" />
<glyph unicode="+" horiz-adv-x="1167" d="M205 575l22 166h301l43 308h170l-43 -308h301l-22 -166h-301l-45 -313h-170l45 313h-301z" />
<glyph unicode="," horiz-adv-x="419" d="M27 -207l92 215q6 16 -8 21l-66 28l68 170q50 -2 83 -6.5t63.5 -15.5t45 -32t14.5 -54q0 -55 -49 -131l-151 -230z" />
<glyph unicode="-" horiz-adv-x="636" d="M68 506l26 182h555l-26 -182h-555z" />
<glyph unicode="." horiz-adv-x="475" d="M78 76q0 71 38.5 114t116.5 43q119 0 119 -102q0 -70 -39.5 -113t-115.5 -43q-119 0 -119 101z" />
<glyph unicode="/" horiz-adv-x="792" d="M-63 -188l815 1734h176l-813 -1734h-178z" />
<glyph unicode="0" horiz-adv-x="1130" d="M94 414q0 88 12 176q14 104 40.5 191.5t73 165.5t110 132t153.5 85.5t201 31.5q110 0 190 -33.5t125.5 -95t66.5 -137.5t21 -170q0 -99 -10 -170q-14 -108 -38.5 -195t-68.5 -167.5t-105 -134.5t-151 -86t-204 -32t-197 33.5t-129.5 95t-68 138t-21.5 172.5zM285 424 q0 -146 55 -225.5t184 -79.5q162 0 248 119t115 346q12 91 12 168q0 295 -235 295q-164 0 -250.5 -116.5t-118.5 -350.5q-10 -71 -10 -156z" />
<glyph unicode="1" horiz-adv-x="710" d="M0 0l14 104l201 13q18 1 24 9t9 32l114 823q3 22 -2.5 30t-21.5 13l-182 37l18 104h395l-139 -1007q-3 -25 2 -32.5t27 -8.5l170 -15l-15 -102h-614z" />
<glyph unicode="2" horiz-adv-x="1003" d="M27 0l18 127l401 356q62 55 83.5 74.5t66 61.5t59 59.5t40.5 50t34 54.5t15.5 50t7.5 58q0 80 -50.5 119t-169.5 39q-114 0 -166 -44.5t-67 -168.5l-172 20q10 85 40.5 147.5t71 99t96 58t106.5 28.5t112 7q203 0 291 -74t88 -211q0 -36 -6 -70t-15 -63t-26.5 -60.5 t-32.5 -54.5t-42 -53.5t-46 -50t-53.5 -50.5t-55 -48.5t-60 -51t-60.5 -51.5l-259 -219h420q16 0 22.5 4t10.5 19l57 174h132l-48 -336h-843z" />
<glyph unicode="3" horiz-adv-x="997" d="M-25 10l121 115q115 -139 305 -139q46 0 87 8t79 27t65 48.5t43.5 75.5t16.5 105q0 105 -64 158t-184 53q-58 0 -141 -12l19 141l118 12q149 15 228.5 89.5t79.5 191.5q0 78 -46.5 122t-144.5 44q-127 0 -182 -43.5t-70 -169.5l-174 20q8 83 38.5 145.5t72.5 98.5 t100 58.5t113 30t120 7.5q186 0 273.5 -78t87.5 -217q0 -127 -72.5 -219t-204.5 -137v-8q101 -25 161.5 -95t60.5 -188q0 -193 -128.5 -308.5t-357.5 -115.5q-140 0 -253 51.5t-167 128.5z" />
<glyph unicode="4" horiz-adv-x="1026" d="M47 162l21 135l575 885l135 -80l-514 -789h383l55 404l177 22l-60 -426h178l-22 -151h-180l-37 -299h-174l41 299h-578z" />
<glyph unicode="5" horiz-adv-x="1013" d="M-20 8l122 119q124 -143 308 -143q63 0 120 19t105 57.5t76 103.5t28 149q0 119 -57.5 172.5t-144.5 53.5q-139 0 -271 -95l-123 60l133 661h701l-21 -159h-550l-87 -398q126 82 275 82q157 0 246.5 -92t89.5 -264q0 -217 -141 -360.5t-379 -143.5q-144 0 -254 48 t-176 130z" />
<glyph unicode="6" horiz-adv-x="1091" d="M135 481q0 68 8.5 142t29.5 157.5t52 160t80 148t110 123.5t145.5 83.5t182.5 31.5q210 0 336 -129l-104 -119q-101 95 -234 95q-76 0 -141 -32.5t-108 -82.5t-76 -116t-50.5 -126.5t-25.5 -120.5q169 129 352 129q155 0 237.5 -88.5t82.5 -244.5q0 -238 -130.5 -377.5 t-357.5 -139.5q-389 0 -389 506zM324 446q0 -325 219 -325q133 0 205.5 95.5t72.5 254.5q0 104 -44 156.5t-138 52.5q-84 0 -168 -40t-141 -89q-6 -99 -6 -105z" />
<glyph unicode="7" horiz-adv-x="1011" d="M129 788l47 377h895l-18 -139q-129 -120 -258.5 -311.5t-229.5 -421.5t-133 -430h-196q34 161 89.5 315t116.5 272.5t135 229t135 185t126 141.5h-490q-17 0 -23.5 -4.5t-11.5 -18.5l-59 -186z" />
<glyph unicode="8" horiz-adv-x="993" d="M55 272q0 134 79.5 238.5t215.5 196.5q-151 97 -151 256q0 114 61 198t158 125t215 41q168 0 259 -74.5t91 -195.5q0 -108 -71 -208.5t-171 -174.5q92 -58 141.5 -124.5t49.5 -170.5q0 -127 -66.5 -220t-178.5 -138.5t-255 -45.5q-173 0 -275 77t-102 220zM229 301 q0 -87 62.5 -135.5t173.5 -48.5q122 0 199 67.5t77 169.5q0 88 -65 149.5t-201 129.5q-246 -163 -246 -332zM383 993q0 -43 18 -80t53.5 -68t70.5 -53.5t87 -50.5q197 155 197 297q0 77 -53.5 112.5t-139.5 35.5q-100 0 -166.5 -52t-66.5 -141z" />
<glyph unicode="9" horiz-adv-x="1077" d="M55 -27l103 123q119 -112 258 -112q80 0 145 33t105 81.5t70 117t43.5 124t23.5 119.5q-167 -127 -354 -127q-154 0 -237 89.5t-83 242.5q0 242 128.5 387t358.5 145q388 0 388 -508q0 -68 -6.5 -139t-24 -157t-45 -163.5t-74 -151.5t-106 -127.5t-145.5 -86.5t-189 -33 q-98 0 -197 36.5t-162 106.5zM319 694q0 -107 43 -162t138 -55q84 0 167.5 40t143.5 91q4 62 4 121q0 322 -217 322q-129 0 -204 -97t-75 -260z" />
<glyph unicode=":" horiz-adv-x="475" d="M78 76q0 71 38.5 114t116.5 43q119 0 119 -102q0 -70 -39.5 -113t-115.5 -43q-119 0 -119 101zM193 874q0 72 38.5 115t116.5 43q119 0 119 -102q0 -69 -40 -112.5t-116 -43.5q-118 0 -118 100z" />
<glyph unicode=";" horiz-adv-x="419" d="M27 -207l92 215q6 16 -8 21l-66 28l68 170q50 -2 83 -6.5t63.5 -15.5t45 -32t14.5 -54q0 -55 -49 -131l-151 -230zM174 874q0 71 39 114.5t117 43.5q119 0 119 -102q0 -69 -40 -112.5t-116 -43.5q-119 0 -119 100z" />
<glyph unicode="&#x3c;" horiz-adv-x="1167" d="M225 489l29 205l805 316l33 -160l-682 -256l618 -248l-72 -153z" />
<glyph unicode="=" horiz-adv-x="1167" d="M193 326l22 170h766l-23 -170h-765zM238 657l24 170h766l-24 -170h-766z" />
<glyph unicode="&#x3e;" horiz-adv-x="1167" d="M150 356l688 246l-611 258l70 150l717 -316l-29 -205l-815 -296z" />
<glyph unicode="?" horiz-adv-x="976" d="M209 1128l39 281q197 74 379 74q409 0 409 -348q0 -219 -137 -346.5t-375 -167.5l-32 -240h-187l51 362q80 8 145.5 22.5t130 44t108.5 71t71 106.5t27 148q0 194 -232 194q-103 0 -164 -14q-22 -6 -30 -14t-13 -27l-43 -137zM223 82q0 73 40.5 112t115.5 39 q119 0 119 -106q0 -73 -40.5 -112.5t-115.5 -39.5q-119 0 -119 107z" />
<glyph unicode="@" horiz-adv-x="1697" d="M98 242q0 197 73 369.5t197.5 293t293.5 189.5t356 69q281 0 445.5 -141.5t164.5 -396.5q0 -62 -7.5 -124t-24.5 -127t-43 -122.5t-65 -108.5t-87.5 -88t-114 -58.5t-141.5 -21.5q-97 0 -143 40.5t-48 111.5q-85 -72 -155 -112t-142 -40q-186 0 -186 213q0 82 22.5 168.5 t68.5 168t107.5 146t146.5 103.5t179 39q148 0 265 -65l-74 -248q-65 -206 -80 -283q-4 -28 -4 -39q0 -78 90 -78q76 0 141.5 70t102.5 183.5t37 238.5q0 216 -122.5 326t-363.5 110q-160 0 -297.5 -62.5t-231.5 -168.5t-147 -248.5t-53 -300.5q0 -230 133.5 -353.5 t388.5 -123.5q180 0 359 63l22 -127q-163 -72 -418 -72q-303 0 -474 153t-171 454zM631 238q0 -59 15.5 -89t64.5 -30q53 0 125.5 43.5t130.5 101.5l116 393q-44 35 -120 35q-55 0 -114 -37t-107 -97t-79.5 -145.5t-31.5 -174.5z" />
<glyph unicode="A" horiz-adv-x="1431" d="M-29 0l15 96l88 23q41 11 59 47l619 1317h231l270 -1329q5 -27 43 -35l88 -23l-14 -96h-493l14 96l174 19l-64 338h-561l-153 -338l157 -19l-16 -96h-457zM506 602h471l-139 715z" />
<glyph unicode="B" horiz-adv-x="1323" d="M72 0l14 98l127 15q22 3 29 10.5t10 30.5l162 1171q3 24 -2 32t-25 9l-125 16l14 101h598q109 0 187.5 -24t122.5 -68t64 -99t20 -123q0 -85 -25.5 -154.5t-69.5 -116t-94.5 -76t-109.5 -46.5l-2 -8q143 -15 219 -98t76 -213q0 -126 -43.5 -216t-125.5 -142t-187 -75.5 t-242 -23.5h-592zM434 150h228q76 0 132.5 6.5t111.5 25.5t89 52t55 88.5t21 132.5q0 120 -80 175.5t-215 55.5h-270zM528 829h177q57 0 106.5 7.5t100 29t86.5 55t58.5 90t22.5 130.5q0 109 -66.5 150.5t-209.5 41.5h-207z" />
<glyph unicode="C" horiz-adv-x="1355" d="M129 612q0 196 54.5 359.5t158.5 283.5t264 187t361 67q132 0 246.5 -29.5t183.5 -80.5l-45 -328l-135 8l-9 197q0 17 -4 25t-18 14q-103 41 -240 41q-135 0 -248.5 -49t-196.5 -140t-129 -229t-46 -309q0 -246 108 -374t322 -128q185 0 288 45q21 9 29 35l60 186h129 l-43 -309q-86 -53 -219.5 -81t-278.5 -28q-154 0 -269 46.5t-185 132.5t-104 200.5t-34 257.5z" />
<glyph unicode="D" d="M72 0l16 102l127 15q19 2 25.5 8.5t9.5 28.5l164 1173q3 24 -2 32t-25 9l-125 14l14 101h601q320 0 476 -160t156 -444q0 -194 -52.5 -352.5t-156.5 -277t-271.5 -184t-385.5 -65.5h-571zM436 145h219q318 0 490 194.5t172 532.5q0 250 -126 357.5t-368 107.5h-223z" />
<glyph unicode="E" horiz-adv-x="1261" d="M74 0l12 100l129 15q21 3 27.5 10t9.5 31l162 1169q3 24 -1.5 32t-25.5 9l-123 14l12 103h1008l-47 -338l-127 8l-6 158q-1 15 -8.5 20.5t-24.5 5.5h-471l-70 -516h535l-21 -147h-536l-72 -529h516q18 0 24.5 4t10.5 19l57 178h127l-47 -346h-1050z" />
<glyph unicode="F" horiz-adv-x="1210" d="M76 0l12 100l127 15q22 3 29 10.5t10 30.5l160 1169q3 24 -1.5 32t-25.5 9l-123 14l15 103h999l-47 -338l-129 8l-6 158q-1 15 -8.5 20.5t-22.5 5.5h-465l-70 -510h529l-21 -147h-528l-72 -522q-3 -25 1.5 -32.5t25.5 -8.5l293 -17l-13 -100h-669z" />
<glyph unicode="G" horiz-adv-x="1464" d="M127 616q0 191 54.5 353t158 283t264 189t361.5 68q130 0 247 -29t185 -81l-43 -326l-135 10l-9 189q0 12 -0.5 17t-5.5 11.5t-16 10.5q-113 45 -254 45q-275 0 -443.5 -194t-168.5 -527q0 -251 120.5 -378.5t352.5 -127.5q159 0 280 33q27 8 31 35l49 360h-272l41 133 h549l-17 -112l-84 -9q-19 -2 -27.5 -7.5t-9.5 -20.5l-65 -482q-93 -43 -227 -63.5t-269 -20.5q-171 0 -297.5 48t-202 135.5t-111.5 201.5t-36 256z" />
<glyph unicode="H" horiz-adv-x="1622" d="M72 0l14 100l129 15q21 3 27.5 10t9.5 31l164 1171q3 24 -1.5 32t-25.5 9l-123 14l13 101h509l-14 -101l-137 -16q-22 -3 -28 -9.5t-9 -29.5l-65 -489h688l69 489q3 24 -1 32t-23 9l-125 14l10 101h510l-12 -101l-135 -16q-23 -3 -29.5 -9.5t-9.5 -29.5l-162 -1169 q-3 -25 0.5 -31.5t23.5 -9.5l134 -17l-15 -100h-510l17 100l127 15q21 3 27 10t9 31l74 534h-688l-78 -532q-3 -25 1 -31.5t26 -9.5l133 -17l-14 -100h-510z" />
<glyph unicode="I" horiz-adv-x="745" d="M55 0l11 100l149 15q21 1 27.5 9t9.5 32l164 1171q3 24 -1.5 32t-25.5 9l-143 14l12 101h549l-12 -101l-156 -16q-23 -3 -28.5 -9t-8.5 -30l-166 -1169q-3 -26 0.5 -32t26.5 -9l151 -17l-10 -100h-549z" />
<glyph unicode="J" horiz-adv-x="991" d="M47 47l37 283l131 -8v-148q0 -20 18 -29q49 -22 144 -22q90 0 129 44.5t53 145.5l141 1016q3 22 -1.5 30t-24.5 9l-170 14l14 101h555l-14 -101l-137 -16q-21 -3 -26.5 -9t-8.5 -28l-146 -1028q-24 -170 -110 -248t-264 -78q-106 0 -196 23.5t-124 48.5z" />
<glyph unicode="K" horiz-adv-x="1466" d="M78 0l12 100l125 15q21 3 27.5 10t9.5 33l164 1169q3 24 -1.5 32t-25.5 9l-123 14l15 101h507l-12 -101l-139 -16q-21 -3 -27.5 -10t-9.5 -29l-84 -592l643 629l-117 16l15 103h450l-14 -101l-102 -18q-28 -4 -39 -10.5t-27 -24.5l-502 -489l400 -684q16 -27 53 -35 l119 -21l-15 -100h-295l-8 8l-110 203l-291 489l-187 -180l-53 -362q-3 -25 1 -31.5t26 -9.5l137 -17l-14 -100h-508z" />
<glyph unicode="L" horiz-adv-x="1228" d="M76 0l12 100l127 15q21 3 27.5 10t9.5 31l164 1169q3 24 -1.5 32t-25.5 9l-123 14l13 103h542l-14 -103l-170 -16q-21 -1 -27.5 -8.5t-9.5 -30.5l-166 -1180h518q18 0 24.5 4t10.5 19l60 184h127l-48 -352h-1050z" />
<glyph unicode="M" horiz-adv-x="1890" d="M76 0l10 100l129 15q22 3 29 10.5t10 32.5l162 1167q3 24 -1.5 32t-25.5 9l-123 14l13 103h366l324 -961l577 961h387l-14 -101l-135 -16q-23 -3 -29.5 -11t-9.5 -36l-164 -1163q-3 -20 3 -28t26 -11l133 -17l-14 -100h-545l10 100l174 15q19 1 25.5 9.5t9.5 31.5 l141 1020l-512 -828h-182l-289 832l-143 -1022q-4 -25 -0.5 -32.5t24.5 -8.5l176 -17l-12 -100h-530z" />
<glyph unicode="N" horiz-adv-x="1669" d="M76 0l10 100l129 15q21 3 27.5 10t9.5 31l164 1169q3 24 -1.5 31t-25.5 10l-123 14l13 103h391l549 -1245l149 1089q3 24 -2 32t-25 9l-124 14l12 101h487l-14 -101l-137 -16q-23 -3 -28.5 -9t-8.5 -30l-185 -1327h-215l-561 1251l-153 -1093q-3 -25 1 -31.5t25 -9.5 l133 -17l-10 -100h-487z" />
<glyph unicode="O" d="M125 586q0 200 53 368t153 292t255 193.5t350 69.5q147 0 259 -46t180 -129t102 -192.5t34 -242.5q0 -429 -213.5 -676.5t-584.5 -247.5q-150 0 -264 45t-184 127.5t-105 192.5t-35 246zM322 621q0 -103 22 -189q71 -299 393 -299q121 0 224.5 46t182.5 135.5t125 232.5 t48 325q0 97 -23 187q-76 293 -381 293q-124 0 -229 -46.5t-185.5 -136t-127 -230.5t-49.5 -318z" />
<glyph unicode="P" horiz-adv-x="1308" d="M72 0l14 100l129 15q22 3 29 10.5t10 30.5l162 1171q3 24 -2.5 32t-26.5 9l-123 14l12 101h611q118 0 204.5 -28.5t136.5 -80.5t73.5 -118t23.5 -148q0 -280 -161.5 -414.5t-458.5 -134.5h-216l-55 -401q-2 -25 2.5 -32.5t24.5 -8.5l284 -17l-12 -100h-661zM510 707h190 q76 0 134.5 8.5t117 33.5t96.5 66.5t61.5 111.5t23.5 165q0 128 -78.5 186.5t-235.5 58.5h-221z" />
<glyph unicode="Q" d="M125 586q0 200 53 368t153 292t255 193.5t350 69.5q147 0 259 -46t180 -129t102 -191.5t34 -241.5q0 -413 -194.5 -652t-548.5 -249v-6q255 -139 449 -139q53 0 131 10l-9 -152q-63 -8 -131 -8q-101 0 -189.5 20.5t-148.5 49.5t-110 57.5t-96 49t-84 20.5q-87 0 -215 -70 l-66 117q72 49 160 71v7q-168 65 -251 211.5t-83 347.5zM322 621q0 -103 22 -189q35 -150 130 -224.5t255 -74.5q121 0 226 46t185.5 134.5t127.5 228.5t49 316q0 111 -23 201q-76 293 -381 293q-124 0 -229 -46.5t-185.5 -136t-127 -230.5t-49.5 -318z" />
<glyph unicode="R" horiz-adv-x="1351" d="M76 0l12 100l127 15q22 3 28 10t9 33l164 1167q3 24 -1.5 32t-25.5 9l-123 14l13 103h604q92 0 163.5 -19t118 -51t76.5 -78t42.5 -97.5t12.5 -111.5q0 -324 -340 -444q39 -21 58.5 -63.5t46.5 -151.5l76 -307q6 -22 16.5 -29t36.5 -10l123 -21l-15 -100h-303l-12 14 l-141 533q-11 45 -37 65.5t-78 20.5h-223l-70 -475q-3 -25 1 -31.5t26 -9.5l135 -17l-14 -100h-506zM524 780h181q86 0 156 18t125 56t85.5 102.5t30.5 151.5q0 129 -81.5 177t-264.5 48h-156z" />
<glyph unicode="S" horiz-adv-x="1161" d="M61 53l45 336h136l12 -184q6 -78 254 -78q174 0 270 73.5t96 219.5q0 34 -8.5 63.5t-21 51.5t-36.5 42.5t-43.5 34t-53.5 28.5t-57 23.5t-62 22.5q-48 17 -74 26.5t-69.5 29.5t-67.5 37.5t-55 46.5t-47 61t-27.5 76.5t-11.5 97.5q0 112 45 199t123 140.5t177 81t214 27.5 q196 0 370 -71l-49 -348l-135 12l-6 176q-1 16 -8 28t-26 23.5t-58.5 18t-98.5 6.5q-70 0 -132 -15.5t-112.5 -46.5t-80 -83t-29.5 -119q0 -43 15 -78t36.5 -58.5t60.5 -46.5t70.5 -36.5t83.5 -32.5q146 -54 207 -92q153 -96 161 -274q1 -11 1 -23q0 -124 -45.5 -217 t-126.5 -148t-184 -82t-228 -27q-127 0 -250.5 25.5t-173.5 52.5z" />
<glyph unicode="T" horiz-adv-x="1302" d="M160 1137l47 346h1204l-47 -346h-129l-8 178q-1 15 -6 18.5t-23 3.5h-317l-166 -1177q-4 -22 0 -30t26 -9l224 -17l-15 -104h-676l15 104l205 15q20 1 26.5 9t9.5 32l164 1177h-315q-18 0 -24.5 -3.5t-10.5 -18.5l-55 -178h-129z" />
<glyph unicode="U" horiz-adv-x="1576" d="M240 1382l14 101h510l-14 -101l-138 -16q-23 -3 -28.5 -9t-8.5 -30l-112 -807q-8 -57 -8 -119q0 -144 75.5 -206t229.5 -62q183 0 278.5 87t124.5 296l111 811q2 25 -2 32.5t-25 8.5l-125 14l15 101h497l-14 -101l-137 -16q-23 -3 -28.5 -9t-8.5 -30l-115 -835 q-36 -269 -180.5 -393t-411.5 -124q-241 0 -355 101t-114 303q0 57 9 121l110 827q3 24 -1 32t-23 9z" />
<glyph unicode="V" horiz-adv-x="1386" d="M150 1382l16 101h487l-14 -101l-168 -18l213 -1196l528 1196l-157 18l16 101h459l-17 -101l-86 -22q-45 -12 -63 -55l-582 -1305h-247l-254 1325q-2 12 -8.5 19t-13 9.5t-21.5 6.5z" />
<glyph unicode="W" horiz-adv-x="1961" d="M141 1382l19 101h516l-14 -101l-181 -20l117 -1153l408 975h204l138 -996l434 1174l-174 20l14 101h492l-17 -101l-106 -18q-20 -3 -32 -13.5t-22 -37.5l-495 -1313h-242l-133 936l-395 -936h-228l-151 1319q-3 23 -10 30.5t-27 12.5z" />
<glyph unicode="X" horiz-adv-x="1402" d="M-8 0l10 96l107 23q33 8 57 39l467 600l-299 567q-7 17 -16 23.5t-27 11.5l-86 22l16 101h469l-14 -101l-152 -18l242 -483l379 483l-144 18l19 101h438l-14 -101l-90 -22q-37 -8 -58 -39l-446 -561l330 -602q15 -29 45 -37l100 -21l-14 -100h-494l17 100l153 19 l-268 508l-395 -508l143 -19l-14 -100h-461z" />
<glyph unicode="Y" horiz-adv-x="1243" d="M141 1382l17 101h469l-17 -101l-151 -18l231 -621l397 621l-147 18l16 101h439l-15 -101l-86 -22q-23 -6 -35 -14.5t-22 -26.5l-479 -739l-58 -422q-3 -16 -2 -25t7 -12t22 -4l197 -17l-13 -100h-639l13 100l194 15q20 1 26 9t9 34l57 415l-299 752q-12 24 -43 35z" />
<glyph unicode="Z" horiz-adv-x="1292" d="M51 0l17 125l993 1212h-600q-18 0 -24.5 -3.5t-10.5 -18.5l-64 -191l-135 -6l52 365h1034l-17 -129l-991 -1209h658q17 0 23.5 4t12.5 19l68 219h131l-51 -387h-1096z" />
<glyph unicode="[" horiz-adv-x="552" d="M86 -293l250 1776h342l-12 -99l-138 -18q-23 -3 -29.5 -10t-9.5 -29l-204 -1460q-5 -23 -1 -30.5t27 -10.5l133 -19l-16 -100h-342z" />
<glyph unicode="\" horiz-adv-x="772" d="M201 1546h168l331 -1734h-170z" />
<glyph unicode="]" horiz-adv-x="536" d="M-63 -293l12 98l137 19q23 3 29.5 10t9.5 29l205 1460q5 23 0.5 30.5t-27.5 10.5l-133 18l16 101h344l-249 -1776h-344z" />
<glyph unicode="^" horiz-adv-x="1126" d="M90 612l508 748h190l304 -748h-177l-243 584l-398 -584h-184z" />
<glyph unicode="_" horiz-adv-x="1024" d="M-88 -371l18 140h1022l-18 -140h-1022z" />
<glyph unicode="`" horiz-adv-x="1024" d="M496 1450l141 123l270 -336l-92 -76z" />
<glyph unicode="a" horiz-adv-x="1187" d="M90 367q0 99 16 194.5t55 189.5t96 164.5t146.5 114t200.5 43.5q158 0 291 -115l33 95h172q-42 -171 -53 -252l-91 -645q-3 -25 1.5 -31.5t27.5 -9.5l100 -15l-16 -100h-299l25 184l-7 2q-102 -102 -193 -156.5t-198 -54.5q-149 0 -228 98t-79 294zM276 383 q0 -248 177 -248q44 0 92.5 21t96.5 59.5t85 73.5t80 82l61 440q-45 45 -115.5 78t-142.5 33q-73 0 -132.5 -36t-96 -92t-61 -129.5t-34.5 -143.5t-10 -138z" />
<glyph unicode="b" horiz-adv-x="1187" d="M115 0q46 176 63 293l154 1081q6 35 -21 43l-110 31l14 98h320l-97 -684q233 211 406 211q132 0 209 -95.5t77 -299.5q0 -94 -15 -186.5t-52.5 -186.5t-92.5 -165t-142 -115.5t-195 -44.5q-176 0 -307 131l-7 -2l-24 -109h-180zM354 260q50 -58 118 -96.5t138 -38.5 t127.5 33.5t94.5 87t62 124t35.5 140t10.5 139.5q0 138 -41 198t-117 60q-135 0 -366 -225z" />
<glyph unicode="c" horiz-adv-x="999" d="M90 403q0 172 48.5 303.5t133 210t191.5 117.5t233 39q177 0 295 -63l-39 -273l-129 6l-6 136q0 22 -24 30q-49 17 -127 17q-75 0 -141 -27.5t-122 -84.5t-89 -157t-33 -231q0 -303 258 -303q79 0 160 21.5t139 52.5l45 -131q-64 -39 -169 -65t-202 -26 q-216 0 -319 113.5t-103 314.5z" />
<glyph unicode="d" horiz-adv-x="1196" d="M90 365q0 95 15.5 189t53 189t94 167t146.5 117.5t201 45.5q162 0 293 -106l55 411q3 33 -20 41l-111 29l14 98h320l-195 -1390q-3 -25 1.5 -31.5t27.5 -9.5l100 -15l-14 -100h-301l25 182l-7 4q-67 -65 -115.5 -104.5t-123 -73t-148.5 -33.5q-149 0 -230 97t-81 293z M276 375q0 -240 175 -240q46 0 95 20.5t97.5 60t84 74t81.5 83.5l61 438q-43 45 -114.5 78t-143.5 33q-75 0 -134.5 -36t-96.5 -93t-61.5 -131.5t-34 -145.5t-9.5 -141z" />
<glyph unicode="e" horiz-adv-x="987" d="M90 397q0 185 72 339t204.5 245.5t297.5 91.5q149 0 218.5 -67.5t69.5 -178.5q0 -64 -26 -118.5t-67 -93.5t-101 -71t-118 -52t-129 -36t-122.5 -24t-109.5 -14q0 -73 11 -123.5t38.5 -90.5t78 -59.5t125.5 -19.5q128 0 293 76l35 -140q-170 -86 -368 -86 q-402 0 -402 422zM291 557q43 5 83.5 12t101 20t109.5 33t94.5 46.5t71 65t25.5 83.5q0 49 -33.5 78t-101.5 29q-132 0 -224.5 -105t-125.5 -262z" />
<glyph unicode="f" horiz-adv-x="792" d="M94 -434l189 1325q3 20 -15 20h-143l20 142h160l27 186q24 171 113.5 250.5t242.5 79.5q96 0 178 -31t125 -68l-78 -124q-116 75 -215 75q-88 0 -131 -49t-57 -153l-21 -146q-2 -11 1 -15.5t14 -4.5h330l-21 -142h-344l-193 -1345h-182z" />
<glyph unicode="g" horiz-adv-x="1167" d="M82 -367l68 134q41 -25 128 -52.5t183 -27.5q130 0 202.5 61.5t92.5 194.5l37 250q-46 -45 -83.5 -76.5t-89 -66t-107 -52.5t-112.5 -18q-150 0 -230.5 96t-80.5 291q0 79 11 157.5t34.5 159t64.5 149.5t95.5 123.5t133 85.5t171.5 31q85 0 162.5 -33t134.5 -82l33 95 h172q-46 -180 -58 -269l-114 -854q-27 -194 -144.5 -290.5t-304.5 -96.5q-127 0 -235 27.5t-164 62.5zM276 379q0 -240 175 -240q46 0 95.5 20.5t97.5 58.5t85 73t80 82l61 436q-43 46 -114.5 79.5t-145.5 33.5t-133.5 -36.5t-96 -93t-61 -130.5t-34 -144t-9.5 -139z" />
<glyph unicode="h" horiz-adv-x="1265" d="M27 0l14 102l100 15q23 3 29.5 9.5t9.5 31.5l170 1216q6 37 -18 43l-111 31l15 98h317l-98 -692q50 42 78 64t78 56.5t88 52.5t87.5 32t96.5 14q232 0 235 -239q0 -59 -10 -127l-78 -549q-3 -25 1.5 -31.5t27.5 -9.5l112 -17l-14 -100h-334l-4 6l37 203l64 455 q10 62 10 120q0 129 -96 129q-78 0 -178 -63.5t-222 -171.5l-72 -520q-3 -25 1.5 -31.5t27.5 -9.5l127 -17l-14 -100h-477z" />
<glyph unicode="i" horiz-adv-x="604" d="M145 8l43 236l93 639q6 34 -23 43l-108 28l14 99h321l-125 -895q-3 -25 1.5 -31.5t27.5 -9.5l121 -17l-14 -100h-346zM279 1389q0 67 41 109t110 42q55 0 85 -28.5t30 -79.5q0 -66 -41.5 -109t-110.5 -43q-54 0 -84 29t-30 80z" />
<glyph unicode="j" horiz-adv-x="585" d="M-281 -367l76 117q30 -21 79 -40t95 -19q82 0 118 49t52 164l137 977q3 20 -1 29.5t-17 13.5l-117 30l15 99h327l-164 -1186q-25 -170 -103.5 -247t-227.5 -77q-87 0 -163 30t-106 60zM279 1389q0 67 41.5 109t111.5 42q54 0 84.5 -28.5t30.5 -79.5q0 -66 -42 -109 t-110 -43q-55 0 -85.5 29t-30.5 80z" />
<glyph unicode="k" horiz-adv-x="1189" d="M27 0l14 102l102 15q20 3 27 10.5t10 30.5l170 1218q6 33 -20 41l-109 31l12 98h324l-137 -975l418 400q59 56 110 79t121 23q46 0 90 -8l-16 -123h-12q-56 0 -99 -17q-47 -19 -108 -77l-176 -170l208 -526q7 -18 17 -23t39 -10l110 -19l-14 -100h-291l-6 6l-72 205 l-143 346l-205 -195l-29 -204q-3 -26 0.5 -32t26.5 -9l129 -17l-14 -100h-477z" />
<glyph unicode="l" horiz-adv-x="602" d="M137 8l43 236l160 1132q6 34 -21 43l-108 29l14 98h324l-197 -1388q-3 -25 1.5 -31.5t27.5 -9.5l121 -17l-15 -100h-346z" />
<glyph unicode="m" horiz-adv-x="1832" d="M31 0l14 102l98 15q22 3 29 10.5t10 30.5l99 721q6 35 -19 43l-108 32l14 99h309l-28 -203q80 67 121 98.5t95 65t99.5 45.5t99.5 12q206 0 206 -199q0 -13 -1 -26q57 52 91.5 80t92 68.5t112 59.5t108.5 19q116 0 165.5 -54t51.5 -161q0 -48 -15 -147l-76 -553 q-3 -25 1.5 -31.5t27.5 -9.5l113 -17l-15 -100h-329l-4 4l43 270l53 390q14 100 14 147q0 50 -19.5 72t-64.5 22q-69 0 -152.5 -56.5t-205.5 -170.5l-74 -520q-3 -25 1.5 -31.5t27.5 -9.5l114 -17l-16 -100h-332l-2 4l41 262l56 398q16 126 16 145q0 98 -80 98 q-39 0 -79 -14t-89 -48t-84 -62.5t-101 -85.5q-15 -13 -22 -19l-71 -520q-3 -25 1 -31.5t27 -9.5l127 -17l-14 -100h-477z" />
<glyph unicode="n" horiz-adv-x="1267" d="M31 0l14 102l98 15q22 3 29 10.5t10 30.5l99 721q6 37 -19 43l-108 32l14 99h309l-28 -203q51 42 79.5 65t79 58t88.5 53t88 32.5t97 14.5q123 0 181 -61.5t60 -184.5q0 -55 -10 -120l-78 -549q-3 -25 1 -31.5t26 -9.5l115 -17l-15 -100h-330l-4 4l39 248l58 412 q12 90 12 127q0 58 -23 89t-82 31q-82 0 -170 -56t-223 -177l-71 -520q-3 -25 1 -31.5t27 -9.5l127 -17l-14 -100h-477z" />
<glyph unicode="o" horiz-adv-x="1144" d="M92 403q0 196 65.5 345.5t198.5 237t318 87.5q111 0 193 -32.5t130 -92t70.5 -135t22.5 -168.5q0 -312 -149.5 -491t-422.5 -179q-214 0 -320 114t-106 314zM281 412q0 -145 64 -220t190 -75q166 0 265 135t99 395q0 277 -246 277q-169 0 -270.5 -130.5t-101.5 -381.5z " />
<glyph unicode="p" horiz-adv-x="1198" d="M78 -426l59 346l131 959q6 37 -18 43l-109 32l13 99h315l-29 -191q108 96 208.5 153.5t207.5 57.5q129 0 206 -98t77 -303q0 -98 -17.5 -195t-57 -188t-95.5 -160.5t-139 -111.5t-183 -42q-85 0 -165.5 33t-139.5 92l-49 -370q-3 -24 0.5 -31t23.5 -8l189 -17l-14 -108 h-406zM365 260q118 -135 260 -135q68 0 124.5 34t93 88t61.5 125t35.5 141t10.5 140q0 254 -153 254q-46 0 -99 -22t-106.5 -61.5t-89 -70t-78.5 -71.5z" />
<glyph unicode="q" horiz-adv-x="1169" d="M92 367q0 147 38 289.5t116 242.5q133 172 368 172q154 0 283 -113l33 95h172q-39 -154 -55 -269l-146 -1054q-3 -24 1.5 -31t25.5 -10l100 -13l-14 -110h-492l15 108l153 15q21 1 28.5 9t10.5 32l66 458q-63 -60 -114 -100.5t-128 -75.5t-150 -35q-311 0 -311 390z M276 379q0 -131 43.5 -187.5t126.5 -56.5q147 0 363 238l61 436q-43 47 -113.5 80t-144.5 33q-75 0 -134.5 -36.5t-96.5 -93t-61.5 -130.5t-34 -144t-9.5 -139z" />
<glyph unicode="r" horiz-adv-x="894" d="M31 0l14 102l102 13q19 1 25.5 9.5t9.5 31.5l101 723q6 37 -19 43l-110 32l14 99h303l-27 -207q41 55 90 102.5t119 86t135 38.5q69 0 132 -18l-41 -310l-144 7l-4 139q0 12 -3.5 16t-16.5 4q-39 0 -112 -59.5t-159 -159.5l-73 -536q-3 -26 1 -33t27 -8l183 -15l-15 -100 h-532z" />
<glyph unicode="s" horiz-adv-x="923" d="M43 43l39 260l127 -8l6 -133q0 -22 21 -31q68 -29 186 -29q103 0 164 46.5t61 130.5q0 77 -48 114t-161 74q-48 16 -80.5 29t-73 37t-64.5 52t-41 71t-17 96q0 159 114.5 240t303.5 81q100 0 185 -18t128 -37l-37 -264l-129 8l-6 127q-2 18 -7 25.5t-22 13.5 q-43 14 -135 14q-96 0 -158.5 -39.5t-62.5 -118.5q0 -65 48 -103t148 -73q36 -12 58 -20.5t56.5 -24t56 -30.5t46.5 -38.5t39.5 -49t24.5 -60.5t10 -76q0 -158 -115 -246t-296 -88q-126 0 -230.5 23t-138.5 45z" />
<glyph unicode="t" horiz-adv-x="819" d="M119 911l18 121q113 18 171 79t95 212h121l-37 -250q-2 -11 1 -15.5t14 -4.5h293l-19 -142h-311l-82 -604q-6 -43 -6 -74q0 -57 28 -82.5t97 -25.5q83 0 190 43l31 -129q-60 -27 -139 -45.5t-148 -18.5q-128 0 -189 52t-61 159q0 20 4 66l89 639q3 20 -13 20h-147z" />
<glyph unicode="u" horiz-adv-x="1263" d="M141 952l17 101h315l6 -9l-92 -657q-10 -62 -10 -125t23.5 -90t84.5 -27q45 0 91.5 16.5t100 54t92.5 69t103 88.5l70 522q3 25 -1.5 31.5t-27.5 9.5l-118 16l14 101h334l6 -9l-125 -888q-6 -36 18 -39l113 -19l-12 -98h-314l31 203q-57 -48 -94.5 -77t-97 -69 t-115.5 -60t-107 -20q-131 0 -194.5 57.5t-63.5 190.5q0 34 9 117l79 553q3 25 -1 31.5t-27 9.5z" />
<glyph unicode="v" horiz-adv-x="1114" d="M76 952l14 101h277l10 -13l33 -209l125 -653l372 754l-131 22l12 99h330l15 -29l-525 -1024h-217l-194 899q-4 18 -11.5 24t-25.5 11z" />
<glyph unicode="w" horiz-adv-x="1662" d="M76 952l16 101h270l11 -13l16 -174l88 -678l350 859h205l115 -871l330 760l-125 16l16 101h299l12 -25l-460 -1028h-218l-110 819l-336 -819h-221l-139 899q-3 29 -31 35z" />
<glyph unicode="x" horiz-adv-x="1146" d="M-18 0l12 98l108 23q26 4 52 33l329 387l-196 362q-10 17 -17.5 24t-23.5 11l-80 12l14 103h236l12 -11l80 -168l113 -212l243 274l-114 16l16 101h401l-14 -101l-86 -20q-29 -6 -55 -39l-314 -346l213 -389q17 -32 47 -37l123 -21l-16 -100h-272l-15 14l-78 152 l-139 258l-256 -305l127 -19l-10 -100h-440z" />
<glyph unicode="y" horiz-adv-x="1081" d="M-156 -367l76 117q84 -59 184 -59q42 0 74.5 13t60 43t46 58.5t45.5 79.5l78 146l-222 870q-4 18 -11 24t-23 11l-84 18l18 99h266l10 -13l48 -258l122 -530l340 682l-127 20l13 99h325l15 -29l-606 -1182q-42 -81 -77 -132.5t-80 -91.5t-99.5 -57.5t-126.5 -17.5 q-84 0 -159 29.5t-106 60.5z" />
<glyph unicode="z" horiz-adv-x="1019" d="M41 0l14 111l705 804h-398q-19 0 -26 -26l-41 -129l-131 -6l39 299h807l-17 -115l-698 -801h424q11 0 15.5 6t10.5 21l46 151l133 7l-45 -322h-838z" />
<glyph unicode="{" horiz-adv-x="587" d="M57 530l19 121q43 2 74 10.5t59 31.5t45 61q26 58 34.5 156t8.5 257q0 89 14.5 143.5t56 93.5t111 57.5t183.5 27.5l10 -119q-41 -5 -70.5 -13t-51 -16t-35 -24.5t-21.5 -30.5t-11.5 -43t-4.5 -52t-1 -67q0 -168 -12 -276q-11 -102 -54.5 -159t-123.5 -99 q110 -47 110 -178q0 -74 -41 -246q-2 -9 -11.5 -44.5t-13.5 -53.5t-10.5 -47t-9 -51t-2.5 -40q0 -50 33 -70.5t125 -41.5l-37 -119q-164 12 -236.5 57t-72.5 148q0 75 46 255q1 4 1.5 6.5t1.5 6t2 6.5q37 153 37 217q0 40 -11 67t-33.5 41t-47 19.5t-60.5 7.5z" />
<glyph unicode="|" horiz-adv-x="575" d="M121 -293l260 1841h168l-260 -1841h-168z" />
<glyph unicode="}" horiz-adv-x="610" d="M-16 -182q36 5 63 10.5t47.5 15t34.5 17.5t23.5 25t14.5 30t7.5 40t3 47.5t0.5 59.5q0 169 12 277q8 70 33.5 120.5t59 80t86.5 57.5q-111 47 -111 178q0 74 41 246q3 10 11.5 44.5t13 53t10.5 47t9 50.5t3 40q0 51 -33 71.5t-125 41.5l37 119q164 -12 237 -57.5 t73 -147.5q0 -15 -1.5 -31.5t-3 -30.5t-5.5 -35t-6.5 -32.5t-8.5 -36.5t-8.5 -34.5t-9.5 -37.5l-9 -36q-37 -153 -37 -217q0 -77 39 -105t113 -31l-18 -120q-43 -2 -74 -10.5t-59.5 -31.5t-45.5 -61q-26 -58 -34.5 -156.5t-8.5 -257.5q0 -89 -14.5 -143.5t-56 -93 t-110.5 -57t-183 -27.5z" />
<glyph unicode="~" horiz-adv-x="987" d="M90 637q55 105 117.5 161t148.5 56q81 0 230 -47t211 -47q48 0 73.5 24t55.5 86l104 -36q-39 -114 -91.5 -172t-141.5 -58q-79 0 -235.5 47t-213.5 47q-48 0 -82.5 -24t-79.5 -84z" />
<glyph unicode="&#xa1;" horiz-adv-x="536" d="M100 -434l47 340l132 760h155l-80 -760l-47 -340h-207zM258 922q0 74 40 112.5t116 38.5q118 0 118 -106q0 -74 -40 -113t-115 -39q-119 0 -119 107z" />
<glyph unicode="&#xa2;" horiz-adv-x="1003" d="M113 489q0 260 124 410.5t336 179.5l31 213h148l-29 -207q157 -7 268 -59l-39 -268l-123 6l-6 133q0 25 -22 31q-47 11 -99 14l-100 -731q58 3 105 18q25 9 32 29l43 133l127 6l-37 -268q-116 -55 -290 -63l-29 -203h-152l29 211q-317 56 -317 415zM309 504 q0 -223 144 -277l98 701q-113 -34 -177.5 -140.5t-64.5 -283.5z" />
<glyph unicode="&#xa3;" horiz-adv-x="1107" d="M70 121q60 44 97.5 84.5t60 94t33.5 104t22 139.5l8 65h-162l18 146h162l17 129q10 82 29.5 147t54.5 122t84.5 94.5t122 59t165.5 21.5q110 0 199.5 -32.5t132.5 -73.5l-90 -121q-37 29 -102 54.5t-134 25.5q-128 0 -192 -66t-82 -201l-22 -159h364l-20 -146h-363 q-12 -85 -19.5 -129.5t-21.5 -99.5t-32.5 -89.5t-48 -73t-72.5 -77.5h524q27 0 35 23l53 174h133l-45 -336h-899z" />
<glyph unicode="&#xa4;" horiz-adv-x="1167" d="M6 135l191 191q-62 118 -62 254q0 117 66 239l-189 187l125 124l180 -178q114 84 277 84q162 0 276 -80l172 172l119 -120l-180 -181q59 -108 59 -239q0 -149 -71 -264l190 -189l-127 -121l-184 181q-109 -74 -266 -74q-164 0 -275 78l-184 -185zM326 580q0 -135 66 -218 t200 -83q123 0 191.5 85t68.5 216q0 140 -68 217t-198 77q-125 0 -192.5 -80.5t-67.5 -213.5z" />
<glyph unicode="&#xa5;" horiz-adv-x="1069" d="M80 1188l14 100h461l-14 -100l-152 -19l203 -403l313 403l-123 19l13 100h411l-14 -100l-86 -21q-15 -3 -24 -10.5t-23 -26.5l-322 -401h201l-14 -127h-267l-16 -117h266l-16 -127h-266l-27 -192q-3 -15 -2 -24t7 -12.5t22 -4.5l196 -16l-14 -109h-639l14 109l193 14 q20 1 26 8t9 27l28 200h-264l19 127h264l16 117h-266l16 127h195l-209 401q-14 27 -43 35z" />
<glyph unicode="&#xa6;" horiz-adv-x="575" d="M121 -293l112 795h168l-112 -795h-168zM281 836l98 712h168l-98 -712h-168z" />
<glyph unicode="&#xa7;" horiz-adv-x="1122" d="M66 -217l34 256l136 -8l4 -129q0 -23 18 -31q74 -31 188 -31q111 0 170.5 45t59.5 129q0 32 -14 58t-29 41.5t-54 32.5t-56.5 22.5t-69.5 20.5q-9 3 -13 4q-37 10 -60.5 17.5t-56.5 21t-54.5 26.5t-45.5 33.5t-37.5 44.5t-22.5 56.5t-9 70.5q0 50 16 95t47.5 84.5 t60 66.5t72.5 63q-84 70 -84 191q0 82 36 145t97.5 101t138 57.5t164.5 19.5q186 0 322 -57l-37 -264l-133 8l-6 127q0 15 -6 22t-21 13q-46 16 -147 16q-116 0 -173 -46t-57 -116q0 -37 16 -65t50 -48t65.5 -32t83.5 -27q132 -39 183 -66q131 -72 131 -219 q0 -91 -56 -169.5t-139 -131.5q80 -80 80 -196q0 -84 -35.5 -148.5t-97.5 -102.5t-138 -56.5t-163 -18.5q-106 0 -216 27t-142 47zM326 506q0 -63 43 -96.5t127 -61.5l159 -51q59 38 100.5 91.5t41.5 113.5q0 61 -44.5 96.5t-152.5 65.5l-137 38q-56 -37 -96.5 -91 t-40.5 -105z" />
<glyph unicode="&#xa8;" horiz-adv-x="1024" d="M377 1333q0 56 35.5 92.5t95.5 36.5q47 0 73.5 -25.5t26.5 -68.5q0 -57 -35.5 -93t-95.5 -36q-47 0 -73.5 25.5t-26.5 68.5zM791 1333q0 56 35.5 92.5t95.5 36.5q47 0 73.5 -25.5t26.5 -68.5q0 -57 -35.5 -93t-95.5 -36q-47 0 -73.5 25.5t-26.5 68.5z" />
<glyph unicode="&#xa9;" horiz-adv-x="1560" d="M121 625q0 207 92 363t245.5 235.5t344.5 79.5q313 0 494.5 -176t181.5 -474q0 -305 -188.5 -492.5t-491.5 -187.5q-133 0 -243.5 32.5t-190.5 91t-135 139.5t-82 179.5t-27 209.5zM242 627q0 -257 149.5 -403t411.5 -146q259 0 409 151t150 412q0 265 -154 411t-405 146 q-248 0 -404.5 -153t-156.5 -418zM438 645q0 179 101 288t290 109q118 0 230 -41v-215l-88 5l-19 100q-3 15 -16 24q-59 23 -123 23q-104 0 -168.5 -71.5t-64.5 -225.5q0 -131 60.5 -212t186.5 -81q65 0 103 17q12 5 20 30l29 105h78v-205q-82 -49 -234 -49 q-102 0 -177.5 29.5t-120 84.5t-66 125.5t-21.5 159.5z" />
<glyph unicode="&#xaa;" horiz-adv-x="825" d="M141 815q0 64 11 125.5t36.5 122t64 106t98 73.5t132.5 28q112 0 193 -74l24 61h138q-33 -151 -35 -165l-60 -404q-3 -15 0.5 -18.5t18.5 -5.5l65 -11l-12 -78h-221l14 115l-4 2q-67 -66 -126.5 -99.5t-129.5 -33.5q-101 0 -154 64t-53 192zM297 829q0 -143 104 -143 q82 0 213 135l41 269q-27 25 -69 43t-84 18q-56 0 -98 -32.5t-64 -84t-32.5 -103.5t-10.5 -102z" />
<glyph unicode="&#xab;" horiz-adv-x="892" d="M129 530l225 306h170l-196 -285q-10 -13 -12 -20t3 -19l111 -301h-168zM453 530l225 306h170l-197 -285q-10 -13 -11.5 -20t3.5 -19l111 -301h-168z" />
<glyph unicode="&#xac;" horiz-adv-x="1167" d="M215 584l23 166h772l-52 -359h-165l28 193h-606z" />
<glyph unicode="&#xad;" horiz-adv-x="636" d="M68 506l26 182h555l-26 -182h-555z" />
<glyph unicode="&#xae;" horiz-adv-x="919" d="M180 969q0 171 108 275t269 104q174 0 275.5 -100t101.5 -265q0 -167 -105 -272t-274 -105q-180 0 -277.5 101.5t-97.5 261.5zM266 971q0 -133 78.5 -209t212.5 -76q135 0 214 78t79 213q0 138 -81.5 214.5t-211.5 76.5q-126 0 -208.5 -80t-82.5 -217zM391 786v43l29 5 q12 2 12 14v268q0 12 -14 14l-27 5v43h178q136 0 136 -111q0 -80 -76 -106q17 -5 35 -39l38 -74q4 -9 17 -12l35 -7v-43h-164v43l37 5l-49 86q-12 20 -35 20h-31v-94q0 -9 12 -12l31 -5v-43h-164zM512 1001h27q84 0 84 62q0 31 -18 42t-54 11h-39v-115z" />
<glyph unicode="&#xaf;" horiz-adv-x="1024" d="M373 1251l20 142h629l-21 -142h-628z" />
<glyph unicode="&#xb0;" horiz-adv-x="587" d="M209 1331q0 116 71.5 181t176.5 65q85 0 135.5 -46.5t50.5 -131.5q0 -110 -69 -178t-177 -68q-88 0 -138 47.5t-50 130.5zM324 1343q0 -42 22 -66t66 -24q56 0 88 36.5t32 96.5q0 43 -23.5 67t-66.5 24q-53 0 -85.5 -36t-32.5 -98z" />
<glyph unicode="&#xb1;" horiz-adv-x="1167" d="M125 0l22 164h773l-23 -164h-772zM205 575l22 166h301l43 308h172l-45 -308h301l-22 -166h-301l-43 -305h-170l43 305h-301z" />
<glyph unicode="&#xb2;" horiz-adv-x="710" d="M80 717l14 104l303 309q11 12 38 39.5t37 38t31.5 33t29.5 33.5t23 29.5t20.5 31t13 28.5t10 30.5t2.5 29.5q0 93 -113 93q-77 0 -114 -28t-49 -102l-160 17q10 59 34 102t55 68.5t75 40t85.5 19.5t94.5 5q135 0 200.5 -52.5t65.5 -147.5q0 -45 -15.5 -87.5t-51.5 -89.5 t-61 -74.5t-79 -82.5l-268 -275h266q16 0 23 17l33 104h122l-34 -233h-631z" />
<glyph unicode="&#xb3;" horiz-adv-x="724" d="M74 823l104 103q82 -92 209 -92q76 0 127 41.5t51 125.5q0 127 -141 127q-45 0 -100 -8l16 119l78 8q190 18 190 170q0 96 -110 96q-68 0 -101 -26t-43 -101l-164 17q8 59 31 102.5t53.5 68.5t73 40t81.5 19.5t87 4.5q135 0 199.5 -52.5t64.5 -145.5q0 -90 -52.5 -151.5 t-133.5 -88.5l-2 -6q69 -15 108 -64t39 -124q0 -137 -98.5 -221.5t-259.5 -84.5q-98 0 -179 33t-128 90z" />
<glyph unicode="&#xb4;" horiz-adv-x="1024" d="M461 1245l338 320l114 -131l-378 -273z" />
<glyph unicode="&#xb5;" horiz-adv-x="1294" d="M106 -360l199 1413h187l-99 -697q-6 -39 -7.5 -66.5t4 -60t20.5 -52t46.5 -33t78.5 -13.5q162 0 342 174l104 748h186l-123 -891q-3 -22 1.5 -31t19.5 -10l109 -15l-15 -106h-303l18 139h-8q-84 -68 -179 -112.5t-177 -44.5q-115 0 -168 81l-6 -2l-39 -421h-191z" />
<glyph unicode="&#xb6;" horiz-adv-x="1255" d="M117 629q0 321 190 506.5t527 185.5h505l-14 -109l-139 -16q-23 -3 -29.5 -9.5t-9.5 -29.5l-154 -1089q-27 -190 -141.5 -284.5t-296.5 -94.5q-128 0 -230.5 28.5t-162.5 63.5l65 129q41 -25 127.5 -52.5t182.5 -27.5q127 0 199.5 61.5t92.5 194.5l154 1100h-158 l-151 -1071h-80q-218 0 -347.5 141t-129.5 373z" />
<glyph unicode="&#xb7;" horiz-adv-x="397" d="M127 602q0 71 39 114.5t117 43.5q118 0 118 -103q0 -69 -39.5 -112t-115.5 -43q-119 0 -119 100z" />
<glyph unicode="&#xb8;" horiz-adv-x="1024" d="M254 -469l25 107q32 -9 77 -9q59 0 105.5 28.5t46.5 84.5q0 86 -133 86l65 233l115 -16l-37 -135q57 -15 94 -54.5t37 -103.5q0 -112 -82 -173.5t-198 -61.5q-66 0 -115 14z" />
<glyph unicode="&#xb9;" horiz-adv-x="567" d="M102 717l13 92l118 10q15 1 20 6.5t7 20.5l92 629q5 25 -14 28l-121 23l19 92h309l-113 -774q-3 -17 0.5 -21t18.5 -6l116 -10l-12 -90h-453z" />
<glyph unicode="&#xba;" horiz-adv-x="811" d="M133 842q0 192 103 310t290 118q151 0 221 -77.5t70 -213.5q0 -193 -100.5 -306.5t-284.5 -113.5q-152 0 -225.5 77.5t-73.5 205.5zM291 854q0 -180 158 -180q97 0 153 77t57 230q0 174 -149 174q-98 0 -158.5 -77t-60.5 -224z" />
<glyph unicode="&#xbb;" horiz-adv-x="892" d="M96 211l197 297q9 13 10 20t-4 19l-113 289h168l135 -314l-219 -311h-174zM420 211l196 297q9 14 10 20.5t-3 18.5l-113 289h168l135 -314l-219 -311h-174z" />
<glyph unicode="&#xbc;" horiz-adv-x="1832" d="M162 575l12 93l119 10q15 1 19.5 6.5t6.5 20.5l93 628q6 26 -15 29l-121 22l19 93h309l-112 -775q-3 -17 0 -20.5t18 -5.5l117 -10l-13 -91h-452zM377 -25l940 1508h172l-938 -1508h-174zM961 172l14 115l438 610h213l-84 -594h115l-17 -133h-116l-25 -170h-158l25 172 h-405zM1141 303h241l60 416z" />
<glyph unicode="&#xbd;" horiz-adv-x="1832" d="M164 575l12 93l119 10q15 2 20 7t7 20l92 628q6 26 -15 29l-120 22l18 93h309l-112 -775q-3 -17 0 -20.5t18 -5.5l117 -10l-13 -91h-452zM332 -25l940 1508h172l-938 -1508h-174zM1020 0l14 104l303 310q11 12 38 39.5t37 38t31.5 33t29.5 33.5t23 29.5t20.5 31t13 28.5 t10 30.5t2.5 29.5q0 92 -112 92q-78 0 -115 -27.5t-49 -101.5l-160 16q10 59 34 102.5t55 68.5t75 40t85.5 20t94.5 5q135 0 200.5 -52.5t65.5 -148.5q0 -45 -15.5 -87.5t-51.5 -89.5t-61 -74.5t-79 -82.5l-268 -274h266q17 0 23 16l33 104h123l-35 -233h-631z" />
<glyph unicode="&#xbe;" horiz-adv-x="1832" d="M109 682l104 102q82 -92 209 -92q76 0 127 42t51 126q0 127 -141 127q-46 0 -101 -8l17 119l78 8q190 18 190 170q0 96 -111 96q-68 0 -100.5 -26t-42.5 -101l-164 17q8 59 31 102.5t53.5 68.5t73 40t81.5 19.5t87 4.5q134 0 199 -53t65 -146q0 -90 -52.5 -151 t-133.5 -88l-2 -6q69 -15 108 -64.5t39 -124.5q0 -137 -98.5 -221t-259.5 -84q-98 0 -179 33t-128 90zM446 -25l940 1508h173l-938 -1508h-175zM1026 172l14 115l439 610h213l-84 -594h114l-16 -133h-117l-24 -170h-158l25 172h-406zM1206 303h242l59 416z" />
<glyph unicode="&#xbf;" horiz-adv-x="983" d="M49 -86q0 219 137 346.5t375 167.5l33 240h186l-51 -363q-80 -8 -145 -22.5t-130 -44t-108.5 -71t-70.5 -106t-27 -147.5q0 -195 231 -195q98 0 164 15q22 6 30 14t13 27l43 137l148 8l-39 -280q-197 -74 -379 -74q-410 0 -410 348zM588 922q0 73 40 112t115 39 q119 0 119 -106q0 -74 -40 -113t-115 -39q-119 0 -119 107z" />
<glyph unicode="&#xc0;" horiz-adv-x="1431" d="M-29 0l15 96l88 23q41 11 59 47l619 1317h231l270 -1329q5 -27 43 -35l88 -23l-14 -96h-493l14 96l174 19l-64 338h-561l-153 -338l157 -19l-16 -96h-457zM506 602h471l-139 715zM635 1776l108 149l351 -262l-70 -96z" />
<glyph unicode="&#xc1;" horiz-adv-x="1431" d="M-29 0l15 96l88 23q41 11 59 47l619 1317h231l270 -1329q5 -27 43 -35l88 -23l-14 -96h-493l14 96l174 19l-64 338h-561l-153 -338l157 -19l-16 -96h-457zM506 602h471l-139 715zM668 1667l417 260l76 -153l-442 -205z" />
<glyph unicode="&#xc2;" horiz-adv-x="1431" d="M-29 0l15 96l88 23q41 11 59 47l619 1317h231l270 -1329q5 -27 43 -35l88 -23l-14 -96h-493l14 96l174 19l-64 338h-561l-153 -338l157 -19l-16 -96h-457zM506 602h471l-139 715zM557 1653l268 209h172l213 -209l-94 -84l-219 170l-268 -170z" />
<glyph unicode="&#xc3;" horiz-adv-x="1431" d="M-29 0l15 96l88 23q41 11 59 47l619 1317h231l270 -1329q5 -27 43 -35l88 -23l-14 -96h-493l14 96l174 19l-64 338h-561l-153 -338l157 -19l-16 -96h-457zM506 602h471l-139 715zM528 1657l72 90q36 46 67.5 65t69.5 19q31 0 64 -8l252 -68q29 -8 45 6l80 76l84 -63 l-58 -70q-45 -56 -77 -79t-68 -23q-30 0 -88 14l-238 63q-21 6 -33 -6l-92 -80z" />
<glyph unicode="&#xc4;" horiz-adv-x="1431" d="M-29 0l15 96l88 23q41 11 59 47l619 1317h231l270 -1329q5 -27 43 -35l88 -23l-14 -96h-493l14 96l174 19l-64 338h-561l-153 -338l157 -19l-16 -96h-457zM506 602h471l-139 715zM573 1696q0 55 36 92t96 37q47 0 73.5 -25.5t26.5 -68.5q0 -57 -35.5 -93t-95.5 -36 q-47 0 -74 25.5t-27 68.5zM987 1696q0 56 35.5 92.5t95.5 36.5q47 0 74 -25.5t27 -68.5q0 -57 -36 -93t-96 -36q-47 0 -73.5 25.5t-26.5 68.5z" />
<glyph unicode="&#xc5;" horiz-adv-x="1431" d="M-29 0l15 96l88 23q41 11 59 47l617 1313q-43 40 -43 110q0 86 57 141.5t145 55.5q68 0 110 -37t42 -102q0 -107 -78 -166l270 -1327q5 -27 43 -35l88 -23l-14 -96h-493l14 96l174 19l-64 338h-561l-153 -338l157 -19l-16 -96h-457zM506 602h471l-139 715zM809 1595 q0 -61 65 -61q40 0 63.5 28.5t23.5 69.5q0 30 -18 46t-48 16q-40 0 -63 -28.5t-23 -70.5z" />
<glyph unicode="&#xc6;" horiz-adv-x="2048" d="M-29 0l15 100l88 23q43 8 63 39l809 1196l-155 18l16 107h1264l-48 -338l-135 8l-6 158q-1 15 -8.5 20.5t-24.5 5.5h-475l-76 -534h547l-16 -146h-549l-74 -512h520q18 0 25.5 4t11.5 19l58 178h135l-47 -346h-1067l12 100l145 17q12 1 16.5 6.5t6.5 17.5l72 516h-443 l-364 -538l147 -19l-14 -100h-449zM743 803h371l76 534h-82z" />
<glyph unicode="&#xc7;" horiz-adv-x="1355" d="M129 612q0 196 54.5 359.5t158.5 283.5t264 187t361 67q132 0 246.5 -29.5t183.5 -80.5l-45 -328l-135 8l-9 197q0 17 -4 25t-18 14q-103 41 -240 41q-135 0 -248.5 -49t-196.5 -140t-129 -229t-46 -309q0 -246 108 -374t322 -128q185 0 288 45q21 9 29 35l60 186h129 l-43 -309q-80 -49 -201 -76.5t-254 -30.5l-19 -69q57 -15 94.5 -53.5t37.5 -102.5q0 -42 -17 -82t-50.5 -75t-93.5 -56.5t-138 -21.5q-53 0 -99 12l27 104q40 -8 65 -8q82 0 123 33t41 86q0 41 -30.5 62t-100.5 22l41 152q-134 11 -234 61.5t-161 134.5t-91 193t-30 243z " />
<glyph unicode="&#xc8;" horiz-adv-x="1261" d="M74 0l12 100l129 15q21 3 27.5 10t9.5 31l162 1169q3 24 -1.5 32t-25.5 9l-123 14l12 103h1008l-47 -338l-127 8l-6 158q-1 15 -8.5 20.5t-24.5 5.5h-471l-70 -516h535l-21 -147h-536l-72 -529h516q18 0 24.5 4t10.5 19l57 178h127l-47 -346h-1050zM582 1776l108 149 l350 -262l-69 -96z" />
<glyph unicode="&#xc9;" horiz-adv-x="1261" d="M74 0l12 100l129 15q21 3 27.5 10t9.5 31l162 1169q3 24 -1.5 32t-25.5 9l-123 14l12 103h1008l-47 -338l-127 8l-6 158q-1 15 -8.5 20.5t-24.5 5.5h-471l-70 -516h535l-21 -147h-536l-72 -529h516q18 0 24.5 4t10.5 19l57 178h127l-47 -346h-1050zM614 1667l418 260 l76 -153l-442 -205z" />
<glyph unicode="&#xca;" horiz-adv-x="1261" d="M74 0l12 100l129 15q21 3 27.5 10t9.5 31l162 1169q3 24 -1.5 32t-25.5 9l-123 14l12 103h1008l-47 -338l-127 8l-6 158q-1 15 -8.5 20.5t-24.5 5.5h-471l-70 -516h535l-21 -147h-536l-72 -529h516q18 0 24.5 4t10.5 19l57 178h127l-47 -346h-1050zM504 1653l268 209h172 l213 -209l-94 -84l-219 170l-269 -170z" />
<glyph unicode="&#xcb;" horiz-adv-x="1261" d="M74 0l12 100l129 15q21 3 27.5 10t9.5 31l162 1169q3 24 -1.5 32t-25.5 9l-123 14l12 103h1008l-47 -338l-127 8l-6 158q-1 15 -8.5 20.5t-24.5 5.5h-471l-70 -516h535l-21 -147h-536l-72 -529h516q18 0 24.5 4t10.5 19l57 178h127l-47 -346h-1050zM520 1696 q0 56 35.5 92.5t95.5 36.5q47 0 74 -25.5t27 -68.5q0 -57 -35.5 -93t-95.5 -36q-47 0 -74 25.5t-27 68.5zM934 1696q0 56 35.5 92.5t95.5 36.5q47 0 73.5 -25.5t26.5 -68.5q0 -57 -35.5 -93t-95.5 -36q-47 0 -73.5 25.5t-26.5 68.5z" />
<glyph unicode="&#xcc;" horiz-adv-x="745" d="M55 0l11 100l149 15q21 1 27.5 9t9.5 32l164 1171q3 24 -1.5 32t-25.5 9l-143 14l12 101h549l-12 -101l-156 -16q-23 -3 -28.5 -9t-8.5 -30l-166 -1169q-3 -26 0.5 -32t26.5 -9l151 -17l-10 -100h-549zM299 1776l109 149l350 -262l-70 -96z" />
<glyph unicode="&#xcd;" horiz-adv-x="745" d="M55 0l11 100l149 15q21 1 27.5 9t9.5 32l164 1171q3 24 -1.5 32t-25.5 9l-143 14l12 101h549l-12 -101l-156 -16q-23 -3 -28.5 -9t-8.5 -30l-166 -1169q-3 -26 0.5 -32t26.5 -9l151 -17l-10 -100h-549zM332 1667l418 260l75 -153l-442 -205z" />
<glyph unicode="&#xce;" horiz-adv-x="745" d="M55 0l11 100l149 15q21 1 27.5 9t9.5 32l164 1171q3 24 -1.5 32t-25.5 9l-143 14l12 101h549l-12 -101l-156 -16q-23 -3 -28.5 -9t-8.5 -30l-166 -1169q-3 -26 0.5 -32t26.5 -9l151 -17l-10 -100h-549zM221 1653l268 209h173l212 -209l-94 -84l-219 170l-268 -170z" />
<glyph unicode="&#xcf;" horiz-adv-x="745" d="M55 0l11 100l149 15q21 1 27.5 9t9.5 32l164 1171q3 24 -1.5 32t-25.5 9l-143 14l12 101h549l-12 -101l-156 -16q-23 -3 -28.5 -9t-8.5 -30l-166 -1169q-3 -26 0.5 -32t26.5 -9l151 -17l-10 -100h-549zM238 1696q0 56 35.5 92.5t95.5 36.5q47 0 73.5 -25.5t26.5 -68.5 q0 -57 -35.5 -93t-95.5 -36q-47 0 -73.5 25.5t-26.5 68.5zM651 1696q0 56 35.5 92.5t95.5 36.5q47 0 74 -25.5t27 -68.5q0 -57 -35.5 -93t-95.5 -36q-47 0 -74 25.5t-27 68.5z" />
<glyph unicode="&#xd0;" d="M72 0l16 102l127 15q19 2 25.5 8.5t9.5 28.5l74 526h-193l19 145h194l70 502q3 24 -2 32t-25 9l-125 14l14 101h601q320 0 476 -160t156 -444q0 -194 -52.5 -352.5t-156.5 -277t-271.5 -184t-385.5 -65.5h-571zM436 145h219q318 0 490 194.5t172 532.5q0 250 -126 357.5 t-368 107.5h-223l-72 -512h385l-20 -145h-383z" />
<glyph unicode="&#xd1;" horiz-adv-x="1669" d="M76 0l10 100l129 15q21 3 27.5 10t9.5 31l164 1169q3 24 -1.5 31t-25.5 10l-123 14l13 103h391l549 -1245l149 1089q3 24 -2 32t-25 9l-124 14l12 101h487l-14 -101l-137 -16q-23 -3 -28.5 -9t-8.5 -30l-185 -1327h-215l-561 1251l-153 -1093q-3 -25 1 -31.5t25 -9.5 l133 -17l-10 -100h-487zM651 1657l72 90q36 46 67.5 65t69.5 19q31 0 64 -8l252 -68q29 -8 45 6l79 76l84 -63l-57 -70q-45 -56 -77 -79t-68 -23q-30 0 -88 14l-238 63q-21 6 -33 -6l-92 -80z" />
<glyph unicode="&#xd2;" d="M125 586q0 200 53 368t153 292t255 193.5t350 69.5q147 0 259 -46t180 -129t102 -192.5t34 -242.5q0 -429 -213.5 -676.5t-584.5 -247.5q-150 0 -264 45t-184 127.5t-105 192.5t-35 246zM322 621q0 -103 22 -189q71 -299 393 -299q121 0 224.5 46t182.5 135.5t125 232.5 t48 325q0 97 -23 187q-76 293 -381 293q-124 0 -229 -46.5t-185.5 -136t-127 -230.5t-49.5 -318zM698 1776l109 149l350 -262l-70 -96z" />
<glyph unicode="&#xd3;" d="M125 586q0 200 53 368t153 292t255 193.5t350 69.5q147 0 259 -46t180 -129t102 -192.5t34 -242.5q0 -429 -213.5 -676.5t-584.5 -247.5q-150 0 -264 45t-184 127.5t-105 192.5t-35 246zM322 621q0 -103 22 -189q71 -299 393 -299q121 0 224.5 46t182.5 135.5t125 232.5 t48 325q0 97 -23 187q-76 293 -381 293q-124 0 -229 -46.5t-185.5 -136t-127 -230.5t-49.5 -318zM731 1667l418 260l76 -153l-443 -205z" />
<glyph unicode="&#xd4;" d="M125 586q0 200 53 368t153 292t255 193.5t350 69.5q147 0 259 -46t180 -129t102 -192.5t34 -242.5q0 -429 -213.5 -676.5t-584.5 -247.5q-150 0 -264 45t-184 127.5t-105 192.5t-35 246zM322 621q0 -103 22 -189q71 -299 393 -299q121 0 224.5 46t182.5 135.5t125 232.5 t48 325q0 97 -23 187q-76 293 -381 293q-124 0 -229 -46.5t-185.5 -136t-127 -230.5t-49.5 -318zM621 1653l268 209h172l213 -209l-94 -84l-219 170l-269 -170z" />
<glyph unicode="&#xd5;" d="M125 586q0 200 53 368t153 292t255 193.5t350 69.5q147 0 259 -46t180 -129t102 -192.5t34 -242.5q0 -429 -213.5 -676.5t-584.5 -247.5q-150 0 -264 45t-184 127.5t-105 192.5t-35 246zM322 621q0 -103 22 -189q71 -299 393 -299q121 0 224.5 46t182.5 135.5t125 232.5 t48 325q0 97 -23 187q-76 293 -381 293q-124 0 -229 -46.5t-185.5 -136t-127 -230.5t-49.5 -318zM592 1657l72 90q36 46 67.5 65t69.5 19q30 0 63 -8l252 -68q29 -8 45 6l80 76l84 -63l-57 -70q-45 -56 -77.5 -79t-68.5 -23q-30 0 -88 14l-237 63q-21 6 -33 -6l-92 -80z" />
<glyph unicode="&#xd6;" d="M125 586q0 200 53 368t153 292t255 193.5t350 69.5q147 0 259 -46t180 -129t102 -192.5t34 -242.5q0 -429 -213.5 -676.5t-584.5 -247.5q-150 0 -264 45t-184 127.5t-105 192.5t-35 246zM322 621q0 -103 22 -189q71 -299 393 -299q121 0 224.5 46t182.5 135.5t125 232.5 t48 325q0 97 -23 187q-76 293 -381 293q-124 0 -229 -46.5t-185.5 -136t-127 -230.5t-49.5 -318zM637 1696q0 56 35.5 92.5t95.5 36.5q47 0 73.5 -25.5t26.5 -68.5q0 -57 -35.5 -93t-95.5 -36q-47 0 -73.5 25.5t-26.5 68.5zM1051 1696q0 56 35.5 92.5t95.5 36.5 q47 0 73.5 -25.5t26.5 -68.5q0 -57 -35.5 -93t-95.5 -36q-47 0 -73.5 25.5t-26.5 68.5z" />
<glyph unicode="&#xd7;" horiz-adv-x="1167" d="M256 438l246 217l-185 219l138 121l182 -217l248 217l102 -121l-248 -219l187 -217l-138 -119l-186 218l-244 -218z" />
<glyph unicode="&#xd8;" d="M125 586q0 200 53 368t153 292t255 193.5t350 69.5q107 0 203 -26l75 135h187l-115 -205q114 -77 169.5 -210t55.5 -304q0 -429 -213.5 -676.5t-584.5 -247.5q-113 0 -215 29l-90 -164h-187l129 232q-225 155 -225 514zM322 621q0 -103 22 -189q26 -119 98 -194l613 1093 q-64 21 -142 21q-124 0 -229 -46.5t-185.5 -136t-127 -230.5t-49.5 -318zM582 154q68 -21 155 -21q121 0 224.5 46t182.5 135.5t125 232.5t48 325q0 97 -23 187q-29 114 -100 188z" />
<glyph unicode="&#xd9;" horiz-adv-x="1576" d="M240 1382l14 101h510l-14 -101l-138 -16q-23 -3 -28.5 -9t-8.5 -30l-112 -807q-8 -57 -8 -119q0 -144 75.5 -206t229.5 -62q183 0 278.5 87t124.5 296l111 811q2 25 -2 32.5t-25 8.5l-125 14l15 101h497l-14 -101l-137 -16q-23 -3 -28.5 -9t-8.5 -30l-115 -835 q-36 -269 -180.5 -393t-411.5 -124q-241 0 -355 101t-114 303q0 57 9 121l110 827q3 24 -1 32t-23 9zM690 1776l109 149l350 -262l-70 -96z" />
<glyph unicode="&#xda;" horiz-adv-x="1576" d="M240 1382l14 101h510l-14 -101l-138 -16q-23 -3 -28.5 -9t-8.5 -30l-112 -807q-8 -57 -8 -119q0 -144 75.5 -206t229.5 -62q183 0 278.5 87t124.5 296l111 811q2 25 -2 32.5t-25 8.5l-125 14l15 101h497l-14 -101l-137 -16q-23 -3 -28.5 -9t-8.5 -30l-115 -835 q-36 -269 -180.5 -393t-411.5 -124q-241 0 -355 101t-114 303q0 57 9 121l110 827q3 24 -1 32t-23 9zM752 1667l417 260l76 -153l-442 -205z" />
<glyph unicode="&#xdb;" horiz-adv-x="1576" d="M240 1382l14 101h510l-14 -101l-138 -16q-23 -3 -28.5 -9t-8.5 -30l-112 -807q-8 -57 -8 -119q0 -144 75.5 -206t229.5 -62q183 0 278.5 87t124.5 296l111 811q2 25 -2 32.5t-25 8.5l-125 14l15 101h497l-14 -101l-137 -16q-23 -3 -28.5 -9t-8.5 -30l-115 -835 q-36 -269 -180.5 -393t-411.5 -124q-241 0 -355 101t-114 303q0 57 9 121l110 827q3 24 -1 32t-23 9zM641 1653l268 209h172l213 -209l-94 -84l-219 170l-268 -170z" />
<glyph unicode="&#xdc;" horiz-adv-x="1576" d="M240 1382l14 101h510l-14 -101l-138 -16q-23 -3 -28.5 -9t-8.5 -30l-112 -807q-8 -57 -8 -119q0 -144 75.5 -206t229.5 -62q183 0 278.5 87t124.5 296l111 811q2 25 -2 32.5t-25 8.5l-125 14l15 101h497l-14 -101l-137 -16q-23 -3 -28.5 -9t-8.5 -30l-115 -835 q-36 -269 -180.5 -393t-411.5 -124q-241 0 -355 101t-114 303q0 57 9 121l110 827q3 24 -1 32t-23 9zM657 1696q0 56 35.5 92.5t95.5 36.5q47 0 74 -25.5t27 -68.5q0 -57 -35.5 -93t-95.5 -36q-47 0 -74 25.5t-27 68.5zM1071 1696q0 56 35.5 92.5t95.5 36.5q47 0 74 -25.5 t27 -68.5q0 -57 -36 -93t-96 -36q-47 0 -73.5 25.5t-26.5 68.5z" />
<glyph unicode="&#xdd;" horiz-adv-x="1243" d="M141 1382l17 101h469l-17 -101l-151 -18l231 -621l397 621l-147 18l16 101h439l-15 -101l-86 -22q-23 -6 -35 -14.5t-22 -26.5l-479 -739l-58 -422q-3 -16 -2 -25t7 -12t22 -4l197 -17l-13 -100h-639l13 100l194 15q20 1 26 9t9 34l57 415l-299 752q-12 24 -43 35z M602 1667l418 260l76 -153l-443 -205z" />
<glyph unicode="&#xde;" horiz-adv-x="1312" d="M70 0l14 102l129 15q22 3 29 10.5t10 30.5l162 1169q3 24 -2.5 32t-26.5 9l-123 14l12 101h523l-13 -101l-155 -16q-19 -3 -25.5 -9.5t-9.5 -27.5l-14 -106h270q118 0 204 -28t136.5 -80.5t74 -119.5t23.5 -151q0 -272 -161.5 -402.5t-458.5 -130.5h-213l-21 -151 q-3 -25 1 -32.5t24 -8.5l286 -17l-14 -102h-661zM475 455h184q76 0 135.5 8.5t118 33t97 66t62.5 110.5t24 163q0 125 -78.5 183t-235.5 58h-223z" />
<glyph unicode="&#xdf;" horiz-adv-x="1300" d="M68 -434l229 1595q14 97 47.5 170.5t78 118t105.5 72t122.5 37.5t135.5 10q103 0 181.5 -23t120.5 -56t68.5 -76t34 -75.5t7.5 -62.5q0 -69 -31.5 -129.5t-76 -103t-89.5 -80t-76.5 -76.5t-31.5 -76q0 -39 24 -73t60.5 -58.5t78.5 -57.5t78.5 -68.5t60.5 -95t24 -132.5 q0 -164 -115 -257.5t-291 -93.5q-109 0 -204 21t-132 41l37 264l129 -8l6 -139q0 -24 21 -31q71 -21 155 -21q98 0 155.5 52.5t57.5 140.5q0 51 -18 91t-47 67.5t-64 51.5t-70.5 48.5t-64.5 52.5t-47 70.5t-18 95.5q0 46 16.5 88.5t43.5 75t59 63t64.5 59.5t59.5 58t43.5 64 t16.5 73q0 75 -61 121.5t-177 46.5q-136 0 -207.5 -66.5t-91.5 -211.5l-225 -1577h-182z" />
<glyph unicode="&#xe0;" horiz-adv-x="1187" d="M90 367q0 99 16 194.5t55 189.5t96 164.5t146.5 114t200.5 43.5q158 0 291 -115l33 95h172q-42 -171 -53 -252l-91 -645q-3 -25 1.5 -31.5t27.5 -9.5l100 -15l-16 -100h-299l25 184l-7 2q-102 -102 -193 -156.5t-198 -54.5q-149 0 -228 98t-79 294zM276 383 q0 -248 177 -248q44 0 92.5 21t96.5 59.5t85 73.5t80 82l61 440q-45 45 -115.5 78t-142.5 33q-73 0 -132.5 -36t-96 -92t-61 -129.5t-34.5 -143.5t-10 -138zM477 1450l141 123l271 -336l-92 -76z" />
<glyph unicode="&#xe1;" horiz-adv-x="1187" d="M90 367q0 99 16 194.5t55 189.5t96 164.5t146.5 114t200.5 43.5q158 0 291 -115l33 95h172q-42 -171 -53 -252l-91 -645q-3 -25 1.5 -31.5t27.5 -9.5l100 -15l-16 -100h-299l25 184l-7 2q-102 -102 -193 -156.5t-198 -54.5q-149 0 -228 98t-79 294zM276 383 q0 -248 177 -248q44 0 92.5 21t96.5 59.5t85 73.5t80 82l61 440q-45 45 -115.5 78t-142.5 33q-73 0 -132.5 -36t-96 -92t-61 -129.5t-34.5 -143.5t-10 -138zM510 1245l338 320l115 -131l-379 -273z" />
<glyph unicode="&#xe2;" horiz-adv-x="1187" d="M90 367q0 99 16 194.5t55 189.5t96 164.5t146.5 114t200.5 43.5q158 0 291 -115l33 95h172q-42 -171 -53 -252l-91 -645q-3 -25 1.5 -31.5t27.5 -9.5l100 -15l-16 -100h-299l25 184l-7 2q-102 -102 -193 -156.5t-198 -54.5q-149 0 -228 98t-79 294zM276 383 q0 -248 177 -248q44 0 92.5 21t96.5 59.5t85 73.5t80 82l61 440q-45 45 -115.5 78t-142.5 33q-73 0 -132.5 -36t-96 -92t-61 -129.5t-34.5 -143.5t-10 -138zM342 1249l297 252h172l225 -252l-102 -78l-225 207l-287 -207z" />
<glyph unicode="&#xe3;" horiz-adv-x="1187" d="M90 367q0 99 16 194.5t55 189.5t96 164.5t146.5 114t200.5 43.5q158 0 291 -115l33 95h172q-42 -171 -53 -252l-91 -645q-3 -25 1.5 -31.5t27.5 -9.5l100 -15l-16 -100h-299l25 184l-7 2q-102 -102 -193 -156.5t-198 -54.5q-149 0 -228 98t-79 294zM276 383 q0 -248 177 -248q44 0 92.5 21t96.5 59.5t85 73.5t80 82l61 440q-45 45 -115.5 78t-142.5 33q-73 0 -132.5 -36t-96 -92t-61 -129.5t-34.5 -143.5t-10 -138zM324 1260l71 90q38 47 69 66.5t66 19.5q32 0 84 -15q198 -56 244 -65q17 -6 33 8l82 76l84 -62l-58 -71 q-45 -57 -76.5 -80t-66.5 -23q-32 0 -88 17q-48 12 -135.5 36t-106.5 29q-18 5 -34 -8l-91 -80z" />
<glyph unicode="&#xe4;" horiz-adv-x="1187" d="M90 367q0 99 16 194.5t55 189.5t96 164.5t146.5 114t200.5 43.5q158 0 291 -115l33 95h172q-42 -171 -53 -252l-91 -645q-3 -25 1.5 -31.5t27.5 -9.5l100 -15l-16 -100h-299l25 184l-7 2q-102 -102 -193 -156.5t-198 -54.5q-149 0 -228 98t-79 294zM276 383 q0 -248 177 -248q44 0 92.5 21t96.5 59.5t85 73.5t80 82l61 440q-45 45 -115.5 78t-142.5 33q-73 0 -132.5 -36t-96 -92t-61 -129.5t-34.5 -143.5t-10 -138zM383 1333q0 56 35.5 92.5t95.5 36.5q47 0 73.5 -25.5t26.5 -68.5q0 -57 -35.5 -93t-95.5 -36q-47 0 -73.5 25.5 t-26.5 68.5zM797 1333q0 56 35.5 92.5t95.5 36.5q47 0 73.5 -25.5t26.5 -68.5q0 -57 -35.5 -93t-95.5 -36q-47 0 -73.5 25.5t-26.5 68.5z" />
<glyph unicode="&#xe5;" horiz-adv-x="1187" d="M90 367q0 99 16 194.5t55 189.5t96 164.5t146.5 114t200.5 43.5q158 0 291 -115l33 95h172q-42 -171 -53 -252l-91 -645q-3 -25 1.5 -31.5t27.5 -9.5l100 -15l-16 -100h-299l25 184l-7 2q-102 -102 -193 -156.5t-198 -54.5q-149 0 -228 98t-79 294zM276 383 q0 -248 177 -248q44 0 92.5 21t96.5 59.5t85 73.5t80 82l61 440q-45 45 -115.5 78t-142.5 33q-73 0 -132.5 -36t-96 -92t-61 -129.5t-34.5 -143.5t-10 -138zM557 1329q0 86 57.5 141.5t145.5 55.5q67 0 109 -37.5t42 -102.5q0 -87 -55 -145.5t-145 -58.5q-69 0 -111.5 38 t-42.5 109zM659 1335q0 -61 66 -61q40 0 63 28t23 70q0 30 -18 46t-48 16q-40 0 -63 -28.5t-23 -70.5z" />
<glyph unicode="&#xe6;" horiz-adv-x="1638" d="M90 367q0 99 16 194.5t55 189.5t96 164.5t146.5 114t200.5 43.5q95 0 186 -42t162 -111q169 153 373 153q140 0 208.5 -68t68.5 -178q0 -132 -97 -217q-60 -53 -177.5 -95t-211.5 -61t-188 -30q1 -73 11.5 -123.5t36.5 -92.5t77 -62.5t127 -20.5q80 0 144.5 17.5 t152.5 58.5l36 -140q-174 -86 -372 -86q-271 0 -361 197q-99 -96 -191.5 -146.5t-191.5 -50.5q-149 0 -228 98t-79 294zM276 383q0 -248 177 -248q118 0 292 170q-6 44 -6 92q3 245 119 416q-62 52 -120 80.5t-128 28.5q-73 0 -132.5 -36t-96 -92t-61 -129.5t-34.5 -143.5 t-10 -138zM942 555q202 31 297 66q186 68 186 190q0 113 -135 113q-130 0 -223.5 -106.5t-124.5 -262.5z" />
<glyph unicode="&#xe7;" horiz-adv-x="999" d="M90 403q0 172 48.5 303.5t133 210t191.5 117.5t233 39q177 0 295 -63l-39 -273l-129 6l-6 136q0 22 -24 30q-49 17 -127 17q-75 0 -141 -27.5t-122 -84.5t-89 -157t-33 -231q0 -303 258 -303q79 0 160 21.5t139 52.5l45 -131q-54 -32 -139 -57t-171 -32l-18 -67 q57 -15 94 -54.5t37 -103.5q0 -112 -82 -173.5t-198 -61.5q-66 0 -115 14l24 107q31 -9 78 -9q59 0 105.5 28.5t46.5 84.5q0 86 -133 86l41 149q-186 17 -274.5 128t-88.5 298z" />
<glyph unicode="&#xe8;" horiz-adv-x="987" d="M90 397q0 185 72 339t204.5 245.5t297.5 91.5q149 0 218.5 -67.5t69.5 -178.5q0 -64 -26 -118.5t-67 -93.5t-101 -71t-118 -52t-129 -36t-122.5 -24t-109.5 -14q0 -73 11 -123.5t38.5 -90.5t78 -59.5t125.5 -19.5q128 0 293 76l35 -140q-170 -86 -368 -86 q-402 0 -402 422zM291 557q43 5 83.5 12t101 20t109.5 33t94.5 46.5t71 65t25.5 83.5q0 49 -33.5 78t-101.5 29q-132 0 -224.5 -105t-125.5 -262zM449 1450l141 123l270 -336l-92 -76z" />
<glyph unicode="&#xe9;" horiz-adv-x="987" d="M90 397q0 185 72 339t204.5 245.5t297.5 91.5q149 0 218.5 -67.5t69.5 -178.5q0 -64 -26 -118.5t-67 -93.5t-101 -71t-118 -52t-129 -36t-122.5 -24t-109.5 -14q0 -73 11 -123.5t38.5 -90.5t78 -59.5t125.5 -19.5q128 0 293 76l35 -140q-170 -86 -368 -86 q-402 0 -402 422zM291 557q43 5 83.5 12t101 20t109.5 33t94.5 46.5t71 65t25.5 83.5q0 49 -33.5 78t-101.5 29q-132 0 -224.5 -105t-125.5 -262zM481 1245l338 320l115 -131l-379 -273z" />
<glyph unicode="&#xea;" horiz-adv-x="987" d="M90 397q0 185 72 339t204.5 245.5t297.5 91.5q149 0 218.5 -67.5t69.5 -178.5q0 -64 -26 -118.5t-67 -93.5t-101 -71t-118 -52t-129 -36t-122.5 -24t-109.5 -14q0 -73 11 -123.5t38.5 -90.5t78 -59.5t125.5 -19.5q128 0 293 76l35 -140q-170 -86 -368 -86 q-402 0 -402 422zM291 557q43 5 83.5 12t101 20t109.5 33t94.5 46.5t71 65t25.5 83.5q0 49 -33.5 78t-101.5 29q-132 0 -224.5 -105t-125.5 -262zM313 1249l297 252h172l226 -252l-103 -78l-225 207l-287 -207z" />
<glyph unicode="&#xeb;" horiz-adv-x="987" d="M90 397q0 185 72 339t204.5 245.5t297.5 91.5q149 0 218.5 -67.5t69.5 -178.5q0 -64 -26 -118.5t-67 -93.5t-101 -71t-118 -52t-129 -36t-122.5 -24t-109.5 -14q0 -73 11 -123.5t38.5 -90.5t78 -59.5t125.5 -19.5q128 0 293 76l35 -140q-170 -86 -368 -86 q-402 0 -402 422zM291 557q43 5 83.5 12t101 20t109.5 33t94.5 46.5t71 65t25.5 83.5q0 49 -33.5 78t-101.5 29q-132 0 -224.5 -105t-125.5 -262zM354 1333q0 56 35.5 92.5t95.5 36.5q47 0 74 -25.5t27 -68.5q0 -57 -35.5 -93t-95.5 -36q-47 0 -74 25.5t-27 68.5zM768 1333 q0 56 35.5 92.5t95.5 36.5q47 0 73.5 -25.5t26.5 -68.5q0 -57 -35.5 -93t-95.5 -36q-47 0 -73.5 25.5t-26.5 68.5z" />
<glyph unicode="&#xec;" horiz-adv-x="604" d="M145 8l43 236l93 639q6 34 -23 43l-108 28l14 99h323l-127 -895q-3 -25 1.5 -31.5t27.5 -9.5l121 -17l-14 -100h-346zM147 1434l142 122l270 -335l-92 -76z" />
<glyph unicode="&#xed;" horiz-adv-x="604" d="M145 8l43 236l93 639q6 34 -23 43l-108 28l14 99h323l-127 -895q-3 -25 1.5 -31.5t27.5 -9.5l121 -17l-14 -100h-346zM152 1229l337 319l115 -131l-379 -272z" />
<glyph unicode="&#xee;" horiz-adv-x="604" d="M6 1237l277 252h172l204 -252l-102 -78l-205 207l-266 -207zM145 8l43 236l93 639q6 34 -23 43l-108 28l14 99h323l-127 -895q-3 -25 1.5 -31.5t27.5 -9.5l121 -17l-14 -100h-346z" />
<glyph unicode="&#xef;" horiz-adv-x="604" d="M55 1288q0 56 35.5 92.5t95.5 36.5q47 0 74 -25.5t27 -68.5q0 -57 -35.5 -93t-95.5 -36q-47 0 -74 25.5t-27 68.5zM145 8l43 236l93 639q6 34 -23 43l-108 28l14 99h323l-127 -895q-3 -25 1.5 -31.5t27.5 -9.5l121 -17l-14 -100h-346zM428 1288q0 56 35.5 92.5t95.5 36.5 q47 0 73.5 -25.5t26.5 -68.5q0 -57 -35.5 -93t-95.5 -36q-47 0 -73.5 25.5t-26.5 68.5z" />
<glyph unicode="&#xf0;" horiz-adv-x="1159" d="M90 420q0 127 37.5 237.5t107 193t175 130t233.5 47.5q69 0 146 -22t137 -64q-32 193 -133 305l-222 -117l-65 121l174 92q-103 62 -244 89l76 139q207 -26 344 -135l227 120l64 -124l-189 -99q152 -199 152 -524q0 -65 -5 -130t-21.5 -150t-42.5 -159.5t-72.5 -149 t-107 -127t-150.5 -85.5t-199 -33q-211 0 -316.5 118.5t-105.5 326.5zM287 420q0 -65 12 -117t39 -95.5t75 -67t115 -23.5q103 0 180 54.5t121 150t66.5 204.5t28.5 238q-32 48 -109 83.5t-160 35.5q-121 0 -205.5 -62.5t-123.5 -165t-39 -235.5z" />
<glyph unicode="&#xf1;" horiz-adv-x="1267" d="M31 0l14 102l98 15q22 3 29 10.5t10 30.5l99 721q6 37 -19 43l-108 32l14 99h309l-28 -203q51 42 79.5 65t79 58t88.5 53t88 32.5t97 14.5q123 0 181 -61.5t60 -184.5q0 -55 -10 -120l-78 -549q-3 -25 1 -31.5t26 -9.5l115 -17l-15 -100h-330l-4 4l39 248l58 412 q12 90 12 127q0 58 -23 89t-82 31q-82 0 -170 -56t-223 -177l-71 -520q-3 -25 1 -31.5t27 -9.5l127 -17l-14 -100h-477zM375 1260l71 90q38 47 69 66.5t67 19.5q32 0 84 -15q201 -56 243 -65q17 -6 33 8l82 76l84 -62l-57 -71q-45 -56 -77 -79.5t-67 -23.5q-32 0 -88 17 q-48 12 -135.5 36.5t-105.5 28.5q-19 5 -35 -8l-90 -80z" />
<glyph unicode="&#xf2;" horiz-adv-x="1144" d="M90 403q0 196 65.5 345.5t198.5 237t318 87.5q111 0 193 -32.5t129.5 -92t70 -135t22.5 -168.5q0 -312 -149 -491t-422 -179q-214 0 -320 114t-106 314zM279 412q0 -145 63.5 -220t189.5 -75q166 0 265.5 135t99.5 395q0 277 -246 277q-169 0 -270.5 -130.5 t-101.5 -381.5zM473 1450l141 123l271 -336l-92 -76z" />
<glyph unicode="&#xf3;" horiz-adv-x="1144" d="M90 403q0 196 65.5 345.5t198.5 237t318 87.5q111 0 193 -32.5t129.5 -92t70 -135t22.5 -168.5q0 -312 -149 -491t-422 -179q-214 0 -320 114t-106 314zM279 412q0 -145 63.5 -220t189.5 -75q166 0 265.5 135t99.5 395q0 277 -246 277q-169 0 -270.5 -130.5 t-101.5 -381.5zM506 1245l338 320l114 -131l-378 -273z" />
<glyph unicode="&#xf4;" horiz-adv-x="1144" d="M90 403q0 196 65.5 345.5t198.5 237t318 87.5q111 0 193 -32.5t129.5 -92t70 -135t22.5 -168.5q0 -312 -149 -491t-422 -179q-214 0 -320 114t-106 314zM279 412q0 -145 63.5 -220t189.5 -75q166 0 265.5 135t99.5 395q0 277 -246 277q-169 0 -270.5 -130.5 t-101.5 -381.5zM338 1249l297 252h172l225 -252l-102 -78l-225 207l-287 -207z" />
<glyph unicode="&#xf5;" horiz-adv-x="1144" d="M90 403q0 196 65.5 345.5t198.5 237t318 87.5q111 0 193 -32.5t129.5 -92t70 -135t22.5 -168.5q0 -312 -149 -491t-422 -179q-214 0 -320 114t-106 314zM279 412q0 -145 63.5 -220t189.5 -75q166 0 265.5 135t99.5 395q0 277 -246 277q-169 0 -270.5 -130.5 t-101.5 -381.5zM319 1260l72 90q38 47 69 66.5t66 19.5q32 0 84 -15q198 -56 244 -65q17 -6 33 8l82 76l84 -62l-58 -71q-45 -57 -76.5 -80t-66.5 -23q-32 0 -88 17q-48 12 -135.5 36t-106.5 29t-35 -8l-90 -80z" />
<glyph unicode="&#xf6;" horiz-adv-x="1144" d="M90 403q0 196 65.5 345.5t198.5 237t318 87.5q111 0 193 -32.5t129.5 -92t70 -135t22.5 -168.5q0 -312 -149 -491t-422 -179q-214 0 -320 114t-106 314zM279 412q0 -145 63.5 -220t189.5 -75q166 0 265.5 135t99.5 395q0 277 -246 277q-169 0 -270.5 -130.5 t-101.5 -381.5zM379 1333q0 56 35.5 92.5t95.5 36.5q47 0 73.5 -25.5t26.5 -68.5q0 -57 -35.5 -93t-95.5 -36q-47 0 -73.5 25.5t-26.5 68.5zM793 1333q0 56 35.5 92.5t95.5 36.5q47 0 73.5 -25.5t26.5 -68.5q0 -57 -35.5 -93t-95.5 -36q-47 0 -73.5 25.5t-26.5 68.5z" />
<glyph unicode="&#xf7;" horiz-adv-x="1167" d="M215 575l25 164h772l-25 -164h-772zM424 319q0 69 39.5 108.5t111.5 39.5q56 0 85.5 -27.5t29.5 -77.5q0 -71 -38.5 -109t-110.5 -38q-117 0 -117 104zM514 954q0 71 39 109.5t111 38.5q114 0 114 -105q0 -71 -38 -109t-111 -38q-56 0 -85.5 26.5t-29.5 77.5z" />
<glyph unicode="&#xf8;" horiz-adv-x="1144" d="M86 -184l141 243q-137 108 -137 344q0 196 65.5 345.5t198.5 237t318 87.5q71 0 137 -16l84 143h168l-119 -205q145 -108 145 -350q0 -312 -149 -491t-422 -179q-77 0 -156 21l-104 -180h-170zM279 412q0 -120 43 -193l405 696q-56 9 -76 9q-169 0 -270.5 -130.5 t-101.5 -381.5zM438 129q44 -12 94 -12q166 0 265.5 135t99.5 395q0 122 -49 189z" />
<glyph unicode="&#xf9;" horiz-adv-x="1263" d="M141 952l17 101h315l6 -9l-92 -657q-10 -62 -10 -125t23.5 -90t84.5 -27q45 0 91.5 16.5t100 54t92.5 69t103 88.5l70 522q3 25 -1.5 31.5t-27.5 9.5l-118 16l14 101h334l6 -9l-125 -888q-6 -36 18 -39l113 -19l-12 -98h-314l31 203q-57 -48 -94.5 -77t-97 -69 t-115.5 -60t-107 -20q-131 0 -194.5 57.5t-63.5 190.5q0 34 9 117l79 553q3 25 -1 31.5t-27 9.5zM479 1450l142 123l270 -336l-92 -76z" />
<glyph unicode="&#xfa;" horiz-adv-x="1263" d="M141 952l17 101h315l6 -9l-92 -657q-10 -62 -10 -125t23.5 -90t84.5 -27q45 0 91.5 16.5t100 54t92.5 69t103 88.5l70 522q3 25 -1.5 31.5t-27.5 9.5l-118 16l14 101h334l6 -9l-125 -888q-6 -36 18 -39l113 -19l-12 -98h-314l31 203q-57 -48 -94.5 -77t-97 -69 t-115.5 -60t-107 -20q-131 0 -194.5 57.5t-63.5 190.5q0 34 9 117l79 553q3 25 -1 31.5t-27 9.5zM532 1245l338 320l115 -131l-379 -273z" />
<glyph unicode="&#xfb;" horiz-adv-x="1263" d="M141 952l17 101h315l6 -9l-92 -657q-10 -62 -10 -125t23.5 -90t84.5 -27q45 0 91.5 16.5t100 54t92.5 69t103 88.5l70 522q3 25 -1.5 31.5t-27.5 9.5l-118 16l14 101h334l6 -9l-125 -888q-6 -36 18 -39l113 -19l-12 -98h-314l31 203q-57 -48 -94.5 -77t-97 -69 t-115.5 -60t-107 -20q-131 0 -194.5 57.5t-63.5 190.5q0 34 9 117l79 553q3 25 -1 31.5t-27 9.5zM365 1249l297 252h172l225 -252l-103 -78l-225 207l-287 -207z" />
<glyph unicode="&#xfc;" horiz-adv-x="1263" d="M141 952l17 101h315l6 -9l-92 -657q-10 -62 -10 -125t23.5 -90t84.5 -27q45 0 91.5 16.5t100 54t92.5 69t103 88.5l70 522q3 25 -1.5 31.5t-27.5 9.5l-118 16l14 101h334l6 -9l-125 -888q-6 -36 18 -39l113 -19l-12 -98h-314l31 203q-57 -48 -94.5 -77t-97 -69 t-115.5 -60t-107 -20q-131 0 -194.5 57.5t-63.5 190.5q0 34 9 117l79 553q3 25 -1 31.5t-27 9.5zM406 1333q0 56 35.5 92.5t95.5 36.5q47 0 73.5 -25.5t26.5 -68.5q0 -57 -35.5 -93t-95.5 -36q-47 0 -73.5 25.5t-26.5 68.5zM819 1333q0 56 35.5 92.5t95.5 36.5 q47 0 74 -25.5t27 -68.5q0 -57 -35.5 -93t-95.5 -36q-47 0 -74 25.5t-27 68.5z" />
<glyph unicode="&#xfd;" horiz-adv-x="1081" d="M-156 -367l76 117q84 -59 184 -59q42 0 74.5 13t60 43t46 58.5t45.5 79.5l78 146l-222 870q-4 18 -11 24t-23 11l-84 18l18 99h266l10 -13l48 -258l122 -530l340 682l-127 20l13 99h325l15 -29l-606 -1182q-42 -81 -77 -132.5t-80 -91.5t-99.5 -57.5t-126.5 -17.5 q-84 0 -159 29.5t-106 60.5zM442 1245l338 320l115 -131l-379 -273z" />
<glyph unicode="&#xfe;" horiz-adv-x="1185" d="M68 -426l30 160l234 1638q3 38 -21 43l-108 33l14 98h318l-99 -684q44 40 80 68.5t91.5 65.5t115 57t117.5 20q134 0 211 -96t77 -303q0 -101 -16.5 -197t-54.5 -188t-94 -161t-142 -111t-192 -42q-170 0 -291 121h-8l-49 -366q-2 -25 1.5 -31.5t24.5 -7.5l189 -17 l-17 -108h-405zM354 260q51 -58 117.5 -96.5t136.5 -38.5t127.5 33.5t94.5 87t62 124t35.5 140t10.5 139.5q0 138 -41 198t-117 60q-135 0 -366 -225z" />
<glyph unicode="&#xff;" horiz-adv-x="1081" d="M-156 -367l76 117q84 -59 184 -59q42 0 74.5 13t60 43t46 58.5t45.5 79.5l78 146l-222 870q-4 18 -11 24t-23 11l-84 18l18 99h266l10 -13l48 -258l122 -530l340 682l-127 20l13 99h325l15 -29l-606 -1182q-42 -81 -77 -132.5t-80 -91.5t-99.5 -57.5t-126.5 -17.5 q-84 0 -159 29.5t-106 60.5zM315 1333q0 56 35.5 92.5t95.5 36.5q47 0 74 -25.5t27 -68.5q0 -57 -35.5 -93t-95.5 -36q-47 0 -74 25.5t-27 68.5zM729 1333q0 56 35.5 92.5t95.5 36.5q47 0 74 -25.5t27 -68.5q0 -57 -36 -93t-96 -36q-47 0 -73.5 25.5t-26.5 68.5z" />
<glyph unicode="&#x152;" horiz-adv-x="2021" d="M123 621q0 190 52.5 353t148.5 281.5t239 186t316 67.5q105 0 204 -26h961l-47 -338l-127 8l-6 158q0 17 -6.5 21.5t-26.5 4.5h-559q139 -154 139 -426v-90h414l-21 -147h-405q-49 -352 -262 -529h575q18 0 24.5 4t10.5 19l57 178h127l-47 -346h-1003q-98 -25 -195 -25 q-184 0 -312.5 82.5t-189.5 226t-61 337.5zM317 627q0 -241 103 -367.5t293 -126.5q240 0 377 188.5t137 546.5q0 484 -371 484q-112 0 -209.5 -48t-171 -137.5t-116 -228.5t-42.5 -311z" />
<glyph unicode="&#x153;" horiz-adv-x="1761" d="M90 406q0 115 23.5 216.5t70 184t113.5 142t158.5 92t199.5 32.5q144 0 239.5 -66.5t127.5 -175.5q71 112 177.5 177t240.5 65q148 0 217 -67.5t69 -178.5q0 -131 -98 -217q-61 -54 -179.5 -96.5t-211.5 -61t-186 -30.5q1 -73 12 -124t38.5 -92t78 -61t125.5 -20 q133 0 294 76l35 -140q-169 -86 -368 -86q-255 0 -338 207q-147 -207 -420 -207q-211 0 -314.5 115.5t-103.5 315.5zM276 416q0 -148 65 -223.5t191 -75.5q168 0 266.5 134.5t98.5 391.5q0 137 -68.5 209t-185.5 72q-169 0 -268 -130t-99 -378zM1065 557q41 5 70 9t84 14.5 t94 22t86.5 31.5t77.5 44t50.5 58.5t20.5 74.5q0 113 -133 113q-132 0 -225.5 -105.5t-124.5 -261.5z" />
<glyph unicode="&#x178;" horiz-adv-x="1243" d="M141 1382l17 101h469l-17 -101l-151 -18l231 -621l397 621l-147 18l16 101h439l-15 -101l-86 -22q-23 -6 -35 -14.5t-22 -26.5l-479 -739l-58 -422q-3 -16 -2 -25t7 -12t22 -4l197 -17l-13 -100h-639l13 100l194 15q20 1 26 9t9 34l57 415l-299 752q-12 24 -43 35z M508 1696q0 56 35.5 92.5t95.5 36.5q47 0 73.5 -25.5t26.5 -68.5q0 -57 -35.5 -93t-95.5 -36q-47 0 -73.5 25.5t-26.5 68.5zM922 1696q0 56 35.5 92.5t95.5 36.5q47 0 73.5 -25.5t26.5 -68.5q0 -57 -35.5 -93t-95.5 -36q-47 0 -73.5 25.5t-26.5 68.5z" />
<glyph unicode="&#x2c6;" horiz-adv-x="1024" d="M340 1249l297 252h172l225 -252l-102 -78l-225 207l-287 -207z" />
<glyph unicode="&#x2dc;" horiz-adv-x="1024" d="M330 1260l71 90q38 47 69 66.5t67 19.5q31 0 84 -15q201 -56 243 -65q17 -6 33 8l82 76l84 -62l-57 -71q-45 -56 -77 -79.5t-67 -23.5q-32 0 -88 17q-48 12 -135.5 36t-106.5 29q-18 5 -34 -8l-90 -80z" />
<glyph unicode="&#x2000;" horiz-adv-x="963" />
<glyph unicode="&#x2001;" horiz-adv-x="1927" />
<glyph unicode="&#x2002;" horiz-adv-x="963" />
<glyph unicode="&#x2003;" horiz-adv-x="1927" />
<glyph unicode="&#x2004;" horiz-adv-x="642" />
<glyph unicode="&#x2005;" horiz-adv-x="481" />
<glyph unicode="&#x2006;" horiz-adv-x="321" />
<glyph unicode="&#x2007;" horiz-adv-x="321" />
<glyph unicode="&#x2008;" horiz-adv-x="240" />
<glyph unicode="&#x2009;" horiz-adv-x="385" />
<glyph unicode="&#x200a;" horiz-adv-x="107" />
<glyph unicode="&#x2010;" horiz-adv-x="636" d="M68 506l26 182h555l-26 -182h-555z" />
<glyph unicode="&#x2011;" horiz-adv-x="636" d="M68 506l26 182h555l-26 -182h-555z" />
<glyph unicode="&#x2012;" horiz-adv-x="636" d="M68 506l26 182h555l-26 -182h-555z" />
<glyph unicode="&#x2013;" horiz-adv-x="1024" d="M25 506l20 141h1022l-20 -141h-1022z" />
<glyph unicode="&#x2014;" horiz-adv-x="2048" d="M14 506l21 141h2046l-21 -141h-2046z" />
<glyph unicode="&#x2018;" horiz-adv-x="378" d="M203 1243q0 46 45 111l135 207l84 -35l-84 -195q-6 -15 10 -20l60 -27l-62 -151q-91 5 -139.5 28.5t-48.5 81.5z" />
<glyph unicode="&#x2019;" horiz-adv-x="387" d="M201 1163l84 195q5 13 -11 18l-59 29l61 151q59 -3 97.5 -12t65 -33t26.5 -63q0 -48 -45 -113l-135 -207z" />
<glyph unicode="&#x201a;" horiz-adv-x="368" d="M14 -217l84 194q5 14 -8 19l-59 29l61 151q59 -3 97.5 -12t65 -33t26.5 -63q0 -48 -45 -113l-136 -207z" />
<glyph unicode="&#x201c;" horiz-adv-x="692" d="M203 1243q0 46 45 111l135 207l84 -35l-84 -195q-6 -15 10 -20l60 -27l-62 -151q-91 5 -139.5 28.5t-48.5 81.5zM516 1243q0 46 45 111l135 207l84 -35l-84 -195q-6 -14 11 -20l59 -27l-61 -151q-91 5 -140 28.5t-49 81.5z" />
<glyph unicode="&#x201d;" horiz-adv-x="700" d="M201 1163l84 195q5 13 -11 18l-59 29l61 151q59 -3 97.5 -12t65 -33t26.5 -63q0 -48 -45 -113l-135 -207zM514 1163l84 195q5 13 -10 18l-60 29l62 151q59 -3 97 -12t64.5 -33t26.5 -63q0 -48 -45 -113l-135 -207z" />
<glyph unicode="&#x201e;" horiz-adv-x="681" d="M14 -217l84 194q5 14 -8 19l-59 29l61 151q59 -3 97.5 -12t65 -33t26.5 -63q0 -48 -45 -113l-136 -207zM328 -217l84 194q5 13 -9 19l-59 29l62 151q59 -3 97 -12t64.5 -33t26.5 -63q0 -48 -45 -113l-135 -207z" />
<glyph unicode="&#x2022;" horiz-adv-x="759" d="M129 573q0 135 73 205t208 70q136 0 209 -70t73 -205t-73 -204.5t-209 -69.5q-135 0 -208 69.5t-73 204.5z" />
<glyph unicode="&#x2026;" horiz-adv-x="1265" d="M78 76q0 71 38.5 114t116.5 43q119 0 119 -102q0 -70 -39.5 -113t-115.5 -43q-119 0 -119 101zM473 76q0 71 39 114t117 43q119 0 119 -102q0 -69 -40 -112.5t-116 -43.5q-119 0 -119 101zM868 76q0 71 39 114t117 43q119 0 119 -102q0 -69 -40 -112.5t-116 -43.5 q-119 0 -119 101z" />
<glyph unicode="&#x202f;" horiz-adv-x="385" />
<glyph unicode="&#x2039;" horiz-adv-x="569" d="M129 530l225 306h170l-196 -285q-10 -13 -12 -20t3 -19l111 -301h-168z" />
<glyph unicode="&#x203a;" horiz-adv-x="569" d="M96 211l197 297q9 13 10 20t-4 19l-113 289h168l135 -314l-219 -311h-174z" />
<glyph unicode="&#x205f;" horiz-adv-x="481" />
<glyph unicode="&#x20ac;" horiz-adv-x="1069" d="M4 444l39 127h133q3 75 12 142h-110l39 127h98q68 243 230.5 365t375.5 122q96 0 178 -21.5t127 -48.5l-43 -296l-122 10l-7 157q0 25 -24 33q-57 17 -137 17q-131 0 -232.5 -85t-152.5 -253h405l-37 -127h-397q-9 -67 -12 -142h372l-37 -127h-333q27 -323 274 -323 q97 0 152 20q20 7 26 33l47 158l127 8l-39 -297q-50 -24 -147 -46t-195 -22q-203 0 -312.5 120.5t-123.5 348.5h-174z" />
<glyph unicode="&#x2122;" horiz-adv-x="1699" d="M197 1276v207h655v-207h-76l-16 110h-176v-587l131 -11v-75h-375v75l123 11v587h-174l-19 -110h-73zM920 713v73l81 11v596l-81 10v80h202l238 -477l244 477h194v-80l-86 -10v-596l90 -11v-73h-299v73l96 11v456l-196 -374h-94l-193 376v-458l103 -11v-73h-299z" />
<glyph unicode="&#xe000;" horiz-adv-x="1054" d="M0 0v1055h1055v-1055h-1055z" />
</font>
</defs>
</svg>
