<?xml version="1.0" encoding="utf-8"?>
<!-- Generator: Adobe Illustrator 18.0.0, SVG Export Plug-In . SVG Version: 6.00 Build 0)  -->
<!DOCTYPE svg PUBLIC "-//W3C//DTD SVG 1.1 Tiny//EN" "http://www.w3.org/Graphics/SVG/1.1/DTD/svg11-tiny.dtd">
<svg version="1.1" baseProfile="tiny" xmlns="http://www.w3.org/2000/svg" xmlns:xlink="http://www.w3.org/1999/xlink" x="0px"
	 y="0px" viewBox="0 0 50 22" xml:space="preserve">
<g id="Source" display="none">
	
		<line display="inline" fill="none" stroke="#59BA47" stroke-width="2" stroke-linecap="round" stroke-linejoin="bevel" x1="1.4" y1="1.1" x2="25" y2="20.9"/>
	
		<line display="inline" fill="none" stroke="#59BA47" stroke-width="2" stroke-linecap="round" stroke-linejoin="bevel" x1="48.6" y1="1.1" x2="25" y2="20.9"/>
</g>
<g id="Expanded">
	<path fill="#FFFFFF" d="M49.6,0.4c-0.4-0.4-1-0.5-1.4-0.1L25,19.7L1.8,0.2C1.4-0.1,0.8-0.1,0.4,0.4C0.1,0.8,0.1,1.4,0.5,1.8
		l23.8,20c0,0,0.1,0.1,0.2,0.1c0,0,0.1,0,0.1,0.1C24.7,22,24.9,22,25,22c0,0,0,0,0,0s0,0,0,0c0.1,0,0.3,0,0.4-0.1c0,0,0.1,0,0.1-0.1
		c0.1,0,0.1,0,0.2-0.1l23.8-20C49.9,1.4,49.9,0.8,49.6,0.4z"/>
</g>
</svg>
